<svg width="34" height="28" viewBox="0 0 34 28" fill="none" xmlns="http://www.w3.org/2000/svg">
<path d="M32.2192 0.53001H0.529785V24.4908H32.2192V0.53001Z" fill="#B4618D"/>
<path d="M32.7491 25.0208H0V0H24.4015V1.05963H1.05963V23.9608H31.6891V1.06002H28.7192V0.000389786H32.7491V25.0208ZM27.38 1.06002H25.7915V0.000389786H27.38V1.06002Z" fill="#0E4C6C"/>
<path d="M32.2192 5.50212H0.529785V24.4908H32.2192V5.50212Z" fill="#0E4C6C"/>
<path d="M32.7491 25.0208H0V4.9725H32.7491V25.0208ZM1.05963 23.9608H31.6891V6.03213H1.05963V23.9608Z" fill="#0E4C6C"/>
<path d="M4.2343 2.08845H2.54248V3.72216H4.2343V2.08845Z" fill="#F2F2F2"/>
<path d="M7.26506 2.06622H5.57324V3.70188H7.26506V2.06622Z" fill="#F2F2F2"/>
<path d="M10.2226 2.06622H8.53076V3.70188H10.2226V2.06622Z" fill="#F2F2F2"/>
<path d="M21.8493 21.7554C18.3377 21.7554 15.481 18.8982 15.481 15.3867C15.481 11.8759 18.3377 9.01953 21.8493 9.01953C25.36 9.01953 28.2156 11.8759 28.2156 15.3867C28.2156 18.8982 25.36 21.7554 21.8493 21.7554ZM21.8493 10.0799C18.9219 10.0799 16.5406 12.4605 16.5406 15.3871C16.5406 18.3144 18.9219 20.6957 21.8493 20.6957C24.7754 20.6957 27.156 18.3144 27.156 15.3871C27.156 12.4605 24.7754 10.0799 21.8493 10.0799Z" fill="#F2F2F2"/>
<path d="M22.001 18.9513C20.1349 18.9513 18.6162 17.4322 18.6162 15.5649C18.6162 13.6988 20.1349 12.1805 22.001 12.1805C23.8683 12.1805 25.3874 13.6988 25.3874 15.5649C25.3874 17.4322 23.8683 18.9513 22.001 18.9513ZM22.001 13.2401C20.7195 13.2401 19.6762 14.283 19.6762 15.5649C19.6762 16.848 20.7195 17.8916 22.001 17.8916C23.2841 17.8916 24.3278 16.848 24.3278 15.5649C24.3278 14.283 23.2841 13.2401 22.001 13.2401Z" fill="#F2F2F2"/>
<path fill-rule="evenodd" clip-rule="evenodd" d="M27.7346 26.6175C26.971 25.5859 26.0054 26.1507 24.9309 25.2896C24.7866 25.1753 24.6306 25.0345 24.4641 24.8789C23.5975 24.0591 23.4809 24.2112 22.1268 23.581C21.5531 23.3146 20.7579 22.9094 21.6994 22.3805C22.4291 21.9718 23.1697 21.7542 24.4223 22.5681C25.0265 22.9601 24.1412 21.6005 24.0772 21.4898L21.369 16.8063C20.3788 15.1971 22.4458 14.0209 23.3947 15.6226L25.2382 18.7344C27.9616 16.7333 29.5844 17.5414 30.6534 18.9669C32.3826 21.2741 31.5929 21.8384 31.8218 22.3938C32.0543 22.9585 32.557 23.4819 32.8081 24.0501C32.8978 24.2525 32.9918 24.4401 33.0839 24.609L28.2319 27.3324C28.0981 27.1261 27.9351 26.8897 27.7346 26.6175Z" fill="#F2F2F2"/>
<path d="M28.2319 27.8624C28.0575 27.8624 27.8871 27.7762 27.7865 27.6198C27.6519 27.4119 27.4909 27.1807 27.308 26.9322C27.0194 26.5426 26.7085 26.481 26.2378 26.3878C25.7741 26.2961 25.1965 26.1819 24.599 25.7033C24.4309 25.5703 24.2531 25.4077 24.1022 25.2665C23.5632 24.7568 23.4002 24.6913 22.8596 24.4733C22.6182 24.3758 22.3179 24.2549 21.9029 24.0614C21.4751 23.8629 20.7587 23.5307 20.7345 22.8996C20.7201 22.5198 20.9568 22.1894 21.4392 21.9184C21.8214 21.7043 22.2914 21.4859 22.8803 21.4859C23.0858 21.4859 23.2952 21.5128 23.5101 21.5678L20.9135 17.0773C20.5153 16.426 20.4677 15.7291 20.7836 15.164C21.0711 14.6496 21.6206 14.3302 22.2177 14.3302C22.8705 14.3302 23.4653 14.7026 23.8506 15.3527L25.4044 17.9755C26.3969 17.3328 27.3251 17.0071 28.1698 17.0071C29.2817 17.0071 30.2599 17.5597 31.0765 18.649C32.3464 20.3428 32.3858 21.2066 32.3179 21.9461C32.3089 22.0463 32.298 22.1598 32.3113 22.1922C32.4095 22.4308 32.58 22.6804 32.7605 22.9445C32.952 23.2249 33.1505 23.515 33.2921 23.836C33.3705 24.0123 33.4571 24.1874 33.5487 24.3559C33.6872 24.6106 33.5955 24.9296 33.3424 25.0711L28.4908 27.7945C28.4089 27.8405 28.3196 27.8624 28.2319 27.8624ZM21.9092 22.8716C21.9981 22.9273 22.1362 23.0014 22.3495 23.1005C22.7403 23.2822 23.0261 23.3977 23.2562 23.4905C23.8728 23.7393 24.1731 23.8754 24.8272 24.4943C24.9605 24.6184 25.1185 24.763 25.2593 24.8746C25.6567 25.1928 26.0209 25.265 26.4433 25.3484C26.9979 25.458 27.627 25.5828 28.1601 26.3024C28.2432 26.4155 28.3223 26.5251 28.3968 26.6315L32.3822 24.3949C32.362 24.352 32.3421 24.3087 32.323 24.2654C32.22 24.0326 32.0578 23.7943 31.8854 23.5423C31.6822 23.2448 31.4716 22.9371 31.3312 22.5954C31.2185 22.322 31.2415 22.0701 31.2618 21.8482C31.3008 21.4282 31.3593 20.7932 30.2283 19.2847C29.6136 18.4649 28.9401 18.0667 28.1695 18.0667C27.4207 18.0667 26.54 18.4349 25.5514 19.1615C25.4309 19.25 25.2784 19.2835 25.1321 19.2539C24.9855 19.2239 24.8584 19.1334 24.7823 19.0047L22.9384 15.8929C22.7461 15.5684 22.4903 15.3898 22.2173 15.3898C22.0039 15.3898 21.8089 15.5013 21.7083 15.6811C21.5824 15.9065 21.6217 16.2076 21.8195 16.5286C21.8218 16.5329 21.8249 16.5368 21.8273 16.5411L24.5351 21.2246C24.5413 21.2347 24.5542 21.255 24.5709 21.2819C25.1161 22.1614 25.2764 22.5342 25.0865 22.8754C24.9859 23.056 24.7928 23.1683 24.583 23.1683C24.3974 23.1683 24.2453 23.0849 24.1334 23.0123C23.6498 22.698 23.2395 22.5451 22.8799 22.5451C22.6014 22.5451 22.3343 22.6313 21.9575 22.8427C21.9404 22.8528 21.9236 22.8626 21.9092 22.8716Z" fill="black"/>
<path fill-rule="evenodd" clip-rule="evenodd" d="M4.89624 13.3856C4.28511 13.2768 3.82335 12.941 3.54996 12.354L3.46143 12.1645L4.17981 11.8174L4.27146 12.005C4.49844 12.457 4.87362 12.65 5.37243 12.65C5.72499 12.65 6.22926 12.5319 6.22926 12.0947C6.22926 12.0198 6.22029 11.9465 6.18675 11.881C6.04947 11.6072 5.5413 11.5413 5.27883 11.5171C4.44969 11.4422 3.73131 11.1138 3.73131 10.1817C3.73131 9.9567 3.78201 9.73518 3.89472 9.53862C4.11039 9.16344 4.48752 8.97234 4.89585 8.90487V8.21847H5.68014V8.91228C6.2355 9.01758 6.68322 9.34206 6.95154 9.85569L7.05138 10.0468L6.33651 10.4032L6.24291 10.2122C6.05142 9.82761 5.6973 9.65523 5.27337 9.65523C4.91106 9.65523 4.52496 9.76014 4.52496 10.1821C4.52496 10.2609 4.53822 10.3397 4.57761 10.4091C4.71099 10.6376 5.12166 10.6981 5.35605 10.7168C6.19104 10.7901 7.02486 11.1107 7.02486 12.0841C7.02486 12.3431 6.95934 12.5904 6.81309 12.8064C6.55413 13.1851 6.12084 13.3614 5.68053 13.414V14.1699H4.89624V13.3856Z" fill="#F2F2F2"/>
<path d="M5.46813 13.9573V13.2183C6.28596 13.1863 6.81285 12.7643 6.81285 12.0838C6.81285 11.4176 6.35109 11.0183 5.33904 10.9282C4.63509 10.8701 4.31451 10.6244 4.31451 10.1817C4.31451 9.7617 4.60935 9.44268 5.27313 9.44268C5.83044 9.44268 6.22551 9.7032 6.43221 10.1178L6.7641 9.95319C6.51645 9.48051 6.0816 9.15408 5.46813 9.09597V8.43024H5.10621V9.09051C4.33869 9.15057 3.94128 9.59673 3.94128 10.1821C3.94128 10.8482 4.36365 11.2215 5.2977 11.3057C6.1206 11.3806 6.44196 11.647 6.44196 12.0951C6.44196 12.5678 6.01062 12.8603 5.37297 12.8603C4.77666 12.8603 4.33947 12.6107 4.08246 12.0986L3.74121 12.2636C4.00407 12.8244 4.45374 13.1375 5.1066 13.2011V13.9569L5.46813 13.9573Z" fill="#F2F2F2"/>
<path d="M5.86353 15.6456H4.37256V21.5276H5.86353V15.6456Z" fill="#B4618D"/>
<path d="M9.28062 14.494H7.79004V21.4562H9.28062V14.494Z" fill="#B4618D"/>
<path d="M12.7205 11.8154H11.2295V21.3736H12.7205V11.8154Z" fill="#B4618D"/>
</svg>
