<svg width="31" height="34" viewBox="0 0 31 34" fill="none" xmlns="http://www.w3.org/2000/svg">
<path fill-rule="evenodd" clip-rule="evenodd" d="M15.3203 0.873841V3.48939H17.5106C17.8907 3.48939 18.1971 3.16619 18.1971 2.76518V1.59805C18.1971 1.19704 17.8907 0.873841 17.5106 0.873841H15.3203Z" fill="#C07A9F"/>
<path fill-rule="evenodd" clip-rule="evenodd" d="M15.3203 0C15.0083 0 14.7529 0.269336 14.7529 0.598524V6.1229C14.7529 6.45209 15.0083 6.72142 15.3203 6.72142C15.6324 6.72142 15.8878 6.45209 15.8878 6.1229V0.598524C15.8878 0.269336 15.6324 0 15.3203 0Z" fill="#00466B"/>
<path fill-rule="evenodd" clip-rule="evenodd" d="M1.11214 22.4506C0.493655 22.4506 0 22.9773 0 23.6237V27.6099H30.6406V23.6237C30.6406 22.9773 30.147 22.4506 29.5285 22.4506H1.11214Z" fill="#BABABA"/>
<path d="M1.11214 26.4368H29.5285C30.1413 26.4368 30.6406 26.9635 30.6406 27.6099V31.2788C30.6406 31.9252 30.1413 32.4519 29.5285 32.4519H1.11214C0.499329 32.4519 0 31.9252 0 31.2788V27.6099C0 26.9635 0.499329 26.4368 1.11214 26.4368Z" fill="#22475A"/>
<path fill-rule="evenodd" clip-rule="evenodd" d="M7.774 13.6942C7.83074 15.4299 7.69456 19.5897 5.65186 24.4916L16.1207 25.533L24.9838 24.4916C22.9411 19.5897 22.8049 15.4299 22.8617 13.6942L15.0483 12.6408L7.774 13.6942Z" fill="#C07A9F"/>
<path fill-rule="evenodd" clip-rule="evenodd" d="M18.8213 22.69C18.39 19.4221 18.2766 16.621 18.2595 14.8494L17.9531 11.3061L12.6761 11.3779L12.3811 14.8494C12.3641 16.621 12.2506 19.4221 11.8193 22.69H18.8156H18.8213Z" fill="#A13970"/>
<path fill-rule="evenodd" clip-rule="evenodd" d="M15.3202 18.5902C14.3953 22.2292 10.9171 21.1279 11.7682 24.4916H18.8666C19.7234 21.1279 16.2395 22.2292 15.3146 18.5902H15.3202Z" fill="#F0F4F6"/>
<path fill-rule="evenodd" clip-rule="evenodd" d="M15.3202 4.09393C12.2788 8.05616 7.7168 10.4981 7.7168 10.4981L15.7912 11.6593L22.918 10.4981C22.918 10.4981 18.3559 8.05616 15.3145 4.09393H15.3202Z" fill="#C07A9F"/>
<path fill-rule="evenodd" clip-rule="evenodd" d="M7.72266 12.4433V13.2752C7.72266 14.161 8.39788 14.8793 9.24334 14.8793C10.0888 14.8793 10.764 14.161 10.764 13.2752H13.8054C13.8054 14.161 14.4863 14.8793 15.3261 14.8793C16.1658 14.8793 16.8468 14.161 16.8468 13.2752H19.8881C19.8881 14.161 20.569 14.8793 21.4088 14.8793C22.2486 14.8793 22.9295 14.161 22.9295 13.2752V12.4433L15.4679 11.33L7.72833 12.4433H7.72266Z" fill="#005B8C"/>
<path fill-rule="evenodd" clip-rule="evenodd" d="M16.841 12.4433V13.2753C16.841 14.1611 17.5163 14.8793 18.3617 14.8793C19.2072 14.8793 19.8824 14.1611 19.8824 13.2753V12.4433L18.3617 11.8149L16.841 12.4433ZM10.7583 12.4433V13.2753C10.7583 14.1611 11.4392 14.8793 12.279 14.8793C13.1188 14.8793 13.7997 14.1611 13.7997 13.2753V12.4433L12.279 11.8149L10.7583 12.4433Z" fill="#D4A4BD"/>
<path fill-rule="evenodd" clip-rule="evenodd" d="M4.85721 24.4916H25.7836C26.2943 24.4916 26.7028 24.9225 26.7028 25.4612C26.7028 25.9999 26.2943 26.4368 25.7836 26.4368H4.85721C4.34653 26.4368 3.93799 25.9999 3.93799 25.4612C3.93799 24.9225 4.34653 24.4916 4.85721 24.4916Z" fill="#00466B"/>
<path fill-rule="evenodd" clip-rule="evenodd" d="M15.3203 4.09393C14.2479 8.05616 12.6421 10.4981 12.6421 10.4981L15.7686 11.0667L17.9928 10.4981C17.9928 10.4981 16.3871 8.05616 15.3146 4.09393H15.3203Z" fill="#A13970"/>
<path fill-rule="evenodd" clip-rule="evenodd" d="M7.72244 10.4981H22.9236C23.4343 10.4981 23.8428 10.929 23.8428 11.4677C23.8428 12.0064 23.4343 12.4433 22.9236 12.4433H7.72244C7.21176 12.4433 6.80322 12.0064 6.80322 11.4677C6.80322 10.929 7.21176 10.4981 7.72244 10.4981Z" fill="#00466B"/>
<path fill-rule="evenodd" clip-rule="evenodd" d="M19.0425 30.0159C18.7305 30.0159 18.4751 30.2913 18.4751 30.6145V30.8958C18.3446 30.8299 18.146 30.7162 18.146 30.7162C17.8453 30.6384 17.5332 30.8359 17.4594 31.1531C17.3857 31.4704 17.5729 31.7995 17.8737 31.8773C17.8737 31.8773 18.2992 31.9372 18.5035 32.6315C18.5773 32.8829 18.7985 33.0505 19.0482 33.0505C19.2979 33.0505 19.5192 32.8829 19.5929 32.6315C19.7972 31.9372 20.2228 31.8773 20.2228 31.8773C20.5235 31.7995 20.7107 31.4704 20.637 31.1531C20.5632 30.8359 20.2511 30.6384 19.9504 30.7162C19.9504 30.7162 19.7518 30.8299 19.6213 30.8958V30.6145C19.6213 30.2913 19.366 30.0159 19.0539 30.0159H19.0425Z" fill="#A95F79"/>
<path fill-rule="evenodd" clip-rule="evenodd" d="M11.5982 30.0159C11.2861 30.0159 11.0307 30.2913 11.0307 30.6145V30.8958C10.9002 30.8299 10.7016 30.7162 10.7016 30.7162C10.4009 30.6384 10.0888 30.8359 10.0151 31.1531C10.0037 31.201 9.99805 31.2489 9.99805 31.2968C9.99805 31.5721 10.1796 31.8115 10.4293 31.8773C10.4293 31.8773 10.8548 31.9372 11.0534 32.6315C11.1272 32.8829 11.3485 33.0505 11.5982 33.0505C11.8478 33.0505 12.0691 32.8829 12.1429 32.6315C12.3472 31.9372 12.7727 31.8773 12.7727 31.8773C13.0735 31.7995 13.2607 31.4704 13.1869 31.1531C13.1132 30.8359 12.8011 30.6384 12.5004 30.7162C12.5004 30.7162 12.3018 30.8299 12.1713 30.8958V30.6145C12.1713 30.2913 11.9159 30.0159 11.6038 30.0159H11.5982Z" fill="#A95F79"/>
<path fill-rule="evenodd" clip-rule="evenodd" d="M4.15338 30.0159C3.8413 30.0159 3.58596 30.2913 3.58596 30.6145V30.8958C3.45545 30.8299 3.25685 30.7162 3.25685 30.7162C2.95612 30.6384 2.64404 30.8359 2.57028 31.1531C2.49651 31.4704 2.68376 31.7995 2.98449 31.8773C2.98449 31.8773 3.41006 31.9372 3.61433 32.6315C3.68809 32.8829 3.90939 33.0505 4.15905 33.0505C4.40872 33.0505 4.63001 32.8829 4.70377 32.6315C4.90804 31.9372 5.33361 31.8773 5.33361 31.8773C5.63434 31.7995 5.82159 31.4704 5.74782 31.1531C5.67406 30.8359 5.36198 30.6384 5.06125 30.7162C5.06125 30.7162 4.86265 30.8299 4.73214 30.8958V30.6145C4.73214 30.2913 4.47681 30.0159 4.16473 30.0159H4.15338Z" fill="#A95F79"/>
<path fill-rule="evenodd" clip-rule="evenodd" d="M26.4869 30.0159C26.1748 30.0159 25.9195 30.2913 25.9195 30.6145V30.8958C25.7889 30.8299 25.5904 30.7162 25.5904 30.7162C25.2896 30.6384 24.9775 30.8359 24.9038 31.1531C24.83 31.4704 25.0173 31.7995 25.318 31.8773C25.318 31.8773 25.7436 31.9372 25.9478 32.6315C26.0216 32.8829 26.2429 33.0505 26.4925 33.0505C26.7422 33.0505 26.9635 32.8829 27.0373 32.6315C27.2415 31.9372 27.6671 31.8773 27.6671 31.8773C27.9678 31.7995 28.1551 31.4704 28.0813 31.1531C28.0076 30.8359 27.6955 30.6384 27.3947 30.7162C27.3947 30.7162 27.1961 30.8299 27.0656 30.8958V30.6145C27.0656 30.2913 26.8103 30.0159 26.4982 30.0159H26.4869Z" fill="#A95F79"/>
<path fill-rule="evenodd" clip-rule="evenodd" d="M3.76226 20.0147C3.45018 20.0147 3.19484 20.284 3.19484 20.6132V20.8945C3.06434 20.8286 2.86574 20.7149 2.86574 20.7149C2.56501 20.6371 2.25293 20.8286 2.17916 21.1518C2.1054 21.4691 2.29265 21.7983 2.59338 21.8761C2.59338 21.8761 3.01894 21.9359 3.22322 22.6302C3.29698 22.8756 3.51827 23.0492 3.76794 23.0492C4.0176 23.0492 4.2389 22.8756 4.31266 22.6302C4.51693 21.9359 4.93682 21.8761 4.93682 21.8761C5.23755 21.7983 5.4248 21.4691 5.35104 21.1518C5.27727 20.8346 4.96519 20.6371 4.66446 20.7149C4.66446 20.7149 4.46586 20.8286 4.33536 20.8945V20.6132C4.33536 20.284 4.08002 20.0147 3.76794 20.0147H3.76226Z" fill="#A95F79"/>
<path fill-rule="evenodd" clip-rule="evenodd" d="M26.8785 20.0147C26.5664 20.0147 26.3111 20.284 26.3111 20.6132V20.8945C26.1805 20.8286 25.982 20.7149 25.982 20.7149C25.6812 20.6371 25.3691 20.8286 25.2954 21.1518C25.2216 21.4691 25.4089 21.7983 25.7096 21.8761C25.7096 21.8761 26.1352 21.9359 26.3338 22.6302C26.4075 22.8756 26.6288 23.0492 26.8785 23.0492C27.1281 23.0492 27.3494 22.8756 27.4232 22.6302C27.6275 21.9359 28.0474 21.8761 28.0474 21.8761C28.3027 21.8102 28.4786 21.5708 28.4786 21.2955C28.4786 21.2476 28.4786 21.1997 28.4616 21.1518C28.3878 20.8286 28.0757 20.6371 27.775 20.7149C27.775 20.7149 27.5764 20.8286 27.4459 20.8945V20.6132C27.4459 20.284 27.1906 20.0147 26.8785 20.0147Z" fill="#A95F79"/>
<path d="M9.16947 22.9175C9.48285 22.9175 9.73689 22.6495 9.73689 22.3189C9.73689 21.9884 9.48285 21.7204 9.16947 21.7204C8.85609 21.7204 8.60205 21.9884 8.60205 22.3189C8.60205 22.6495 8.85609 22.9175 9.16947 22.9175Z" fill="#F0F4F6"/>
<path d="M9.53812 20.7867C9.8515 20.7867 10.1055 20.5187 10.1055 20.1882C10.1055 19.8576 9.8515 19.5897 9.53812 19.5897C9.22475 19.5897 8.9707 19.8576 8.9707 20.1882C8.9707 20.5187 9.22475 20.7867 9.53812 20.7867Z" fill="#F0F4F6"/>
<path d="M21.4712 22.9175C21.7846 22.9175 22.0386 22.6495 22.0386 22.3189C22.0386 21.9884 21.7846 21.7204 21.4712 21.7204C21.1579 21.7204 20.9038 21.9884 20.9038 22.3189C20.9038 22.6495 21.1579 22.9175 21.4712 22.9175Z" fill="#F0F4F6"/>
<path d="M21.1026 20.7867C21.416 20.7867 21.67 20.5187 21.67 20.1882C21.67 19.8576 21.416 19.5897 21.1026 19.5897C20.7892 19.5897 20.5352 19.8576 20.5352 20.1882C20.5352 20.5187 20.7892 20.7867 21.1026 20.7867Z" fill="#F0F4F6"/>
</svg>
