<svg width="32" height="32" viewBox="0 0 32 32" fill="none" xmlns="http://www.w3.org/2000/svg">
<path d="M31.6667 15.8333C31.6667 19.6175 30.3367 23.2117 27.93 26.0458C27.7083 26.2992 27.4867 26.5367 27.265 26.7742C26.7425 27.3125 26.1883 27.8192 25.6025 28.2625C22.8317 30.4792 19.4275 31.6667 15.8333 31.6667C12.2392 31.6667 8.835 30.4792 6.06417 28.2625C5.47833 27.8192 4.92417 27.3125 4.40167 26.7742C4.18 26.5367 3.95833 26.2992 3.73667 26.0458C1.33 23.2117 0 19.6175 0 15.8333C0 12.0492 1.33 8.455 3.73667 5.62083C3.95833 5.3675 4.18 5.13 4.40167 4.8925C4.92417 4.35417 5.47833 3.8475 6.06417 3.40417C8.835 1.1875 12.2392 0 15.8333 0C19.4275 0 22.8317 1.1875 25.6025 3.40417C26.1883 3.8475 26.7425 4.35417 27.265 4.8925C27.4867 5.13 27.7083 5.3675 27.93 5.62083C30.3367 8.455 31.6667 12.0492 31.6667 15.8333Z" fill="#275B82"/>
<path d="M6.06407 3.40417C5.47824 3.8475 4.92407 4.35417 4.40157 4.8925C4.17991 5.13 3.95824 5.3675 3.73657 5.62083C5.66824 8.645 6.69741 12.16 6.69741 15.8333C6.69741 19.5067 5.66824 23.0217 3.73657 26.0458C3.95824 26.2992 4.17991 26.5367 4.40157 26.7742C4.92407 27.3125 5.47824 27.8192 6.06407 28.2625C8.53407 24.6367 9.86407 20.33 9.86407 15.8333C9.86407 11.3367 8.53407 7.03 6.06407 3.40417Z" fill="#AD6B98"/>
<path d="M27.93 5.62083C27.7083 5.3675 27.4867 5.13 27.265 4.8925C26.7425 4.35417 26.1883 3.8475 25.6025 3.40417C23.1325 7.03 21.8025 11.3367 21.8025 15.8333C21.8025 20.33 23.1325 24.6367 25.6025 28.2625C26.1883 27.8192 26.7425 27.3125 27.265 26.7742C27.4867 26.5367 27.7083 26.2992 27.93 26.0458C25.9983 23.0217 24.9692 19.5067 24.9692 15.8333C24.9692 12.16 25.9983 8.645 27.93 5.62083Z" fill="#AD6B98"/>
</svg>
