<svg width="34" height="34" viewBox="0 0 34 34" fill="none" xmlns="http://www.w3.org/2000/svg">
<path d="M31.0631 31.069H2.93688C1.31484 31.069 0 29.7541 0 28.1321V26.3793H34V28.1321C34 29.7541 32.6852 31.069 31.0631 31.069Z" fill="#999A9A"/>
<path d="M9.3794 29.3103H3.51739C3.19379 29.3103 2.93115 29.0483 2.93115 28.7241C2.93115 28.3999 3.19379 28.1379 3.51739 28.1379H9.37946C9.70306 28.1379 9.9657 28.3999 9.9657 28.7241C9.96563 29.0483 9.703 29.3103 9.3794 29.3103Z" fill="#4E5B75"/>
<path d="M30.4825 29.3103H24.6204C24.2968 29.3103 24.0342 29.0483 24.0342 28.7241C24.0342 28.3999 24.2968 28.1379 24.6204 28.1379H30.4825C30.8061 28.1379 31.0687 28.3999 31.0687 28.7241C31.0687 29.0483 30.8061 29.3103 30.4825 29.3103Z" fill="#4E5B75"/>
<path d="M17.5863 29.3103H16.4139C16.0903 29.3103 15.8276 29.0483 15.8276 28.7241C15.8276 28.3999 16.0903 28.1379 16.4139 28.1379H17.5863C17.9099 28.1379 18.1725 28.3999 18.1725 28.7241C18.1724 29.0483 17.9098 29.3103 17.5863 29.3103Z" fill="#4E5B75"/>
<path d="M32.8276 26.3793H1.17236V4.68968C1.17236 3.71835 1.95961 2.93104 2.931 2.93104H31.0689C32.0402 2.93104 32.8276 3.71829 32.8276 4.68968V26.3793Z" fill="#4E5B75"/>
<path d="M3.51709 24.0345H30.4825V5.27584H3.51709V24.0345Z" fill="#F5F5F5"/>
<path d="M14.6552 18.7586H12.3104C11.9868 18.7586 11.7241 18.4966 11.7241 18.1724C11.7241 17.8482 11.9868 17.5862 12.3104 17.5862H14.6552C14.9788 17.5862 15.2414 17.8482 15.2414 18.1724C15.2414 18.4966 14.9787 18.7586 14.6552 18.7586Z" fill="#00A6FF"/>
<path d="M9.96532 18.7586H6.44805C6.12445 18.7586 5.86182 18.4966 5.86182 18.1724C5.86182 17.8482 6.12445 17.5862 6.44805 17.5862H9.96532C10.2889 17.5862 10.5516 17.8482 10.5516 18.1724C10.5516 18.4966 10.2889 18.7586 9.96532 18.7586Z" fill="#00466B"/>
<path d="M8.79334 21.1034H6.44854C6.12494 21.1034 5.8623 20.8414 5.8623 20.5172C5.8623 20.193 6.12494 19.931 6.44854 19.931H8.79334C9.11694 19.931 9.37958 20.193 9.37958 20.5172C9.37951 20.8414 9.11694 21.1034 8.79334 21.1034Z" fill="#00A6FF"/>
<path d="M14.6553 21.1034H11.138C10.8144 21.1034 10.5518 20.8414 10.5518 20.5172C10.5518 20.193 10.8144 19.931 11.138 19.931H14.6553C14.9789 19.931 15.2415 20.193 15.2415 20.5172C15.2414 20.8414 14.9788 21.1034 14.6553 21.1034Z" fill="#00466B"/>
<path d="M25.399 16.4782C24.6199 16.813 23.7623 17 22.8618 17C21.9608 17 21.1038 16.813 20.3241 16.4782C18.6921 17.3751 17.5859 19.1097 17.5859 21.1034V24.0345H28.1377V21.1034C28.1377 19.1097 27.031 17.3752 25.399 16.4782Z" fill="#C07A9F"/>
<path d="M26.3793 11.7242C26.3793 13.6669 24.8047 15.2414 22.862 15.2414C20.9193 15.2414 19.3447 13.6669 19.3447 11.7242C19.3447 9.78144 20.9193 8.20688 22.862 8.20688C24.8047 8.20688 26.3793 9.78144 26.3793 11.7242Z" fill="#DDD7D1"/>
</svg>
