<svg width="34" height="33" viewBox="0 0 34 33" fill="none" xmlns="http://www.w3.org/2000/svg">
<path fill-rule="evenodd" clip-rule="evenodd" d="M21.2349 18.5161L27.7813 15.8002L30.8193 22.4043L23.9005 25.2178L21.2349 18.5161Z" fill="#3D4553"/>
<path fill-rule="evenodd" clip-rule="evenodd" d="M28.918 13.2016L27.7812 15.8002L30.8388 22.4434L31.7993 19.7276L28.918 13.2016Z" fill="#3D4553"/>
<path fill-rule="evenodd" clip-rule="evenodd" d="M22.0776 18.2035L27.7813 15.8002L28.9181 13.1234L22.744 15.6439L22.0776 18.2035Z" fill="#3D4553" stroke="#3D4553" stroke-width="1.8587" stroke-linecap="round" stroke-linejoin="round"/>
<path fill-rule="evenodd" clip-rule="evenodd" d="M14.1396 28.6372C14.9432 31.5093 16.0605 32.9943 19.2945 31.7634L17.3737 27.2304L14.1396 28.6372Z" fill="#AA6594"/>
<path fill-rule="evenodd" clip-rule="evenodd" d="M18.8832 3.31508C18.3148 3.43227 17.7855 3.64727 17.2955 3.94031L17.5308 5.05398C17.1191 5.36664 16.7663 5.75742 16.492 6.2068L15.3748 6.07C15.1199 6.59758 14.9631 7.16422 14.8848 7.73078L15.904 8.27789C15.8844 8.80547 15.9823 9.33297 16.1587 9.84102L15.3748 10.6421C15.6099 11.1696 15.9431 11.6581 16.3352 12.088L17.374 11.619C17.7659 11.9707 18.2364 12.2442 18.7459 12.4201L18.8832 13.5729C19.4516 13.7097 20.02 13.7488 20.608 13.7096L20.8824 12.5959C21.392 12.4983 21.882 12.3029 22.3328 12.0293L23.2932 12.635C23.744 12.2834 24.136 11.8534 24.43 11.365L23.744 10.4076C23.9792 9.93867 24.136 9.4307 24.1752 8.90312L25.2532 8.53188C25.2532 7.9457 25.1552 7.35961 24.9592 6.8125L23.8224 6.77344C23.6068 6.28492 23.2932 5.83555 22.9208 5.4643L23.2736 4.37016C22.8228 3.99891 22.3132 3.70586 21.7644 3.49094L21.0392 4.37016C20.5296 4.23336 20.0004 4.1943 19.4712 4.25289L18.8832 3.31508ZM18.8832 5.67922C19.628 5.4057 20.4316 5.44477 21.1568 5.75742C21.882 6.07 22.4504 6.6757 22.7248 7.39867C22.8816 7.75039 22.96 8.14109 22.96 8.53188C22.96 8.92266 22.8816 9.31344 22.7444 9.66516C22.5876 10.0364 22.372 10.349 22.0976 10.6421C21.8232 10.9156 21.49 11.1305 21.1372 11.2869C20.3924 11.5604 19.5692 11.5213 18.8636 11.2087C18.1384 10.8766 17.57 10.2904 17.2955 9.56742C17.1387 9.19625 17.0604 8.80547 17.08 8.41469C17.08 8.02391 17.1584 7.63312 17.3152 7.26187C17.472 6.89062 17.7072 6.57805 17.9816 6.30445C18.2755 6.03094 18.6087 5.81602 18.9812 5.67922H18.8832Z" fill="#3D4553"/>
<path fill-rule="evenodd" clip-rule="evenodd" d="M23.5675 22.502C23.0971 22.5998 22.6659 22.7755 22.2543 23.0296L22.4307 23.9479C22.0779 24.2215 21.7839 24.5341 21.5682 24.9053L20.6079 24.8076C20.3922 25.2374 20.255 25.6869 20.1963 26.1558L21.0195 26.5856C20.9999 27.0155 21.0782 27.4453 21.2155 27.8361L20.5686 28.5004C20.7843 28.9302 21.0586 29.321 21.3723 29.6532L22.2346 29.2624C22.5679 29.5359 22.9403 29.7509 23.3519 29.8877L23.4499 30.8451C23.9203 30.9623 24.3907 31.0014 24.8611 30.9427L25.0963 30.044C25.5275 29.9659 25.9195 29.8095 26.2723 29.5751L27.0759 30.0635C27.4483 29.7705 27.7815 29.4383 28.0363 29.028L27.4679 28.2855C27.6639 27.9143 27.8011 27.4844 27.8404 27.0741L28.7223 26.7615C28.7223 26.2926 28.6636 25.8236 28.5068 25.3742H27.5463C27.3699 24.9834 27.1151 24.6318 26.8211 24.3191L27.1151 23.4399C26.7427 23.1468 26.3311 22.9123 25.8803 22.7365L25.2923 23.4399C24.8807 23.3227 24.4495 23.3031 24.0183 23.3617L23.5087 22.5802L23.5675 22.502ZM23.5675 24.4364C24.1751 24.2019 24.8415 24.2019 25.4295 24.4559C26.0175 24.7099 26.4879 25.1788 26.7427 25.7845C26.8604 26.0777 26.9191 26.3902 26.9191 26.7224C26.9191 27.035 26.8407 27.3477 26.7231 27.6407C26.6055 27.9338 26.4095 28.2073 26.1939 28.4223C25.9587 28.6372 25.7039 28.813 25.4099 28.9302C24.8023 29.1648 24.1359 29.1648 23.5479 28.9107C22.9599 28.6567 22.4895 28.1878 22.2346 27.5821C22.1171 27.289 22.0582 26.9764 22.0582 26.6442C22.0582 26.3316 22.1367 25.9995 22.2543 25.7064C22.3719 25.4133 22.5679 25.1398 22.8031 24.9248C22.9991 24.7099 23.2735 24.5341 23.5675 24.4364Z" fill="#3D4553"/>
<path fill-rule="evenodd" clip-rule="evenodd" d="M13.2383 23.0686L13.297 10.0363L20.1375 9.9582L23.1755 13.0258L23.0775 22.8537L13.2383 23.0686Z" fill="#3D4553"/>
<path fill-rule="evenodd" clip-rule="evenodd" d="M20.0591 12.8889V9.56734L23.3911 12.928L20.0591 12.8889Z" fill="#3D4553" stroke="#3D4553" stroke-width="1.8587" stroke-linecap="round" stroke-linejoin="round"/>
<path fill-rule="evenodd" clip-rule="evenodd" d="M9.31818 10.5054C1.47811 13.3776 2.34053 24.9054 11.9446 26.8202C11.9446 26.8202 13.199 28.481 13.9438 28.6763C14.6887 28.8717 16.3743 27.9925 16.3743 27.9925L9.31818 10.5054Z" fill="#AA6594"/>
<path fill-rule="evenodd" clip-rule="evenodd" d="M22.313 16.8945L28.8595 14.1786L31.8974 20.7827L24.9786 23.5962L22.313 16.8945Z" fill="#5D93C6"/>
<path fill-rule="evenodd" clip-rule="evenodd" d="M22.1562 16.5232C22.0581 16.5623 21.9798 16.6405 21.9405 16.7577C21.9013 16.8554 21.9013 16.9727 21.9405 17.0703L24.6062 23.7916C24.6258 23.8502 24.6454 23.8893 24.6845 23.9284C24.7238 23.9675 24.763 24.0066 24.8218 24.0261C24.8805 24.0456 24.9198 24.0652 24.9786 24.0652C25.0373 24.0652 25.0962 24.0456 25.1354 24.0261L32.0542 21.2125C32.1522 21.1734 32.2306 21.0953 32.2895 20.9976C32.3286 20.8999 32.3286 20.7827 32.2895 20.6655L29.2514 14.0613C29.2122 13.9637 29.1338 13.8855 29.0358 13.8464C28.9378 13.8073 28.8202 13.8073 28.7222 13.8464L22.1562 16.5623V16.5232ZM22.8421 17.1094L28.6242 14.6866L31.329 20.5482L25.1941 23.0491L22.8226 17.0898L22.8421 17.1094Z" fill="#3D4553"/>
<path fill-rule="evenodd" clip-rule="evenodd" d="M29.9766 11.58L28.8594 14.1787L31.917 20.8218L32.8773 18.1059L29.9766 11.58Z" fill="#AA6594"/>
<path fill-rule="evenodd" clip-rule="evenodd" d="M30.3685 11.3845C30.3294 11.3064 30.2902 11.2477 30.2117 11.2087C30.153 11.1696 30.0746 11.1501 29.9962 11.1501C29.9178 11.1501 29.8394 11.1696 29.761 11.2087C29.7021 11.2477 29.6434 11.3259 29.6042 11.3845L28.487 13.9832C28.4674 14.0418 28.4478 14.1004 28.4478 14.1591C28.4478 14.2177 28.4674 14.2763 28.487 14.3349L31.5446 20.978C31.5838 21.0562 31.6426 21.1148 31.7013 21.1539C31.7602 21.193 31.8386 21.2125 31.9366 21.2125C32.015 21.2125 32.0934 21.1734 32.1718 21.1344C32.2306 21.0952 32.2894 21.0171 32.3286 20.939L33.3478 18.223C33.3674 18.1645 33.387 18.1254 33.387 18.0668C33.387 18.0081 33.3674 17.9495 33.3478 17.9105L30.3685 11.3845ZM29.9962 12.5764L32.4854 18.1059L31.8778 19.7471L29.3102 14.1591L29.9962 12.5764Z" fill="#3D4553"/>
<path fill-rule="evenodd" clip-rule="evenodd" d="M23.1558 16.5819L28.8594 14.1786L29.9766 11.5018L23.8222 14.0223L23.1558 16.5819Z" fill="#B0B0B0"/>
<path fill-rule="evenodd" clip-rule="evenodd" d="M22.8028 16.4645C22.7832 16.5427 22.7832 16.6209 22.8028 16.6795C22.8224 16.7577 22.8616 16.8163 22.9204 16.8748C22.9792 16.9335 23.0576 16.953 23.1164 16.9726C23.1948 16.9921 23.2732 16.9726 23.332 16.953L29.0357 14.5498C29.0748 14.5302 29.1337 14.4912 29.1729 14.4716C29.2121 14.452 29.2316 14.3934 29.2512 14.3348L30.388 11.658C30.4272 11.5798 30.4272 11.5017 30.4076 11.4236C30.388 11.3454 30.3489 11.2673 30.2901 11.2087C30.2312 11.15 30.1529 11.1109 30.0744 11.0914C29.9961 11.0719 29.9176 11.0914 29.8393 11.1109L23.6848 13.6314C23.626 13.651 23.5672 13.6901 23.528 13.7291C23.4888 13.7682 23.4496 13.8268 23.43 13.8855L22.8028 16.4645ZM23.822 15.8784L24.2337 14.3153L29.2904 12.2442L28.624 13.8659L23.8024 15.8784H23.822Z" fill="#3D4553"/>
<path fill-rule="evenodd" clip-rule="evenodd" d="M15.8447 27.7188C16.5504 30.2784 17.5695 31.5484 20.3919 30.4738L18.7259 26.4684L15.8447 27.7188Z" fill="#B0B0B0"/>
<path fill-rule="evenodd" clip-rule="evenodd" d="M19.1771 25.257L14.7671 27.1718L14.9827 27.9143C15.5119 29.79 16.2567 31.0405 17.4523 31.5094C18.5303 31.8416 19.7063 31.7634 20.7255 31.2749L21.5879 30.9427L19.1771 25.257ZM15.8451 27.7189C16.5507 30.2784 17.5699 31.5484 20.3923 30.4738L18.7263 26.4684L15.8451 27.7189Z" fill="#AA6594"/>
<path fill-rule="evenodd" clip-rule="evenodd" d="M19.6474 1.92789C19.0789 2.04508 18.5497 2.26 18.0597 2.55312L18.2949 3.68633C17.8833 3.99898 17.5305 4.38977 17.2561 4.83914L16.1389 4.70234C15.8841 5.22992 15.7273 5.77695 15.6489 6.36312L16.6681 6.91023C16.6485 7.43773 16.7465 7.98484 16.9425 8.47328L16.1389 9.29391C16.3937 9.82148 16.7073 10.3099 17.0993 10.7398L18.1381 10.2904C18.5497 10.6421 19.0006 10.8961 19.5101 11.072L19.6474 12.2248C20.2157 12.3615 20.7842 12.4006 21.3721 12.3615L21.6466 11.2478C22.1562 11.1501 22.6462 10.9547 23.097 10.6812L24.0574 11.2869C24.5081 10.9352 24.9002 10.5053 25.1942 10.0169L24.5081 9.05945C24.7434 8.59055 24.9002 8.08258 24.9394 7.555L26.0174 7.18375C26.0174 6.59758 25.9194 6.01141 25.7234 5.46437L24.5866 5.42531C24.371 4.9368 24.0574 4.48742 23.6849 4.11617L24.0378 3.02203C23.587 2.65078 23.0774 2.35773 22.5285 2.14281L21.8034 3.02203C21.2938 2.88523 20.7646 2.84617 20.2549 2.90477L19.6278 1.94742L19.6474 1.92789ZM19.6474 4.29203C20.3921 4.01852 21.1957 4.05758 21.921 4.37016C22.6462 4.68281 23.2146 5.28852 23.4889 6.01141C23.6458 6.36313 23.7242 6.75391 23.7242 7.14469C23.7242 7.53547 23.6458 7.92625 23.5085 8.27789C23.3517 8.64914 23.1362 8.9618 22.8617 9.25484C22.5874 9.52844 22.2542 9.74336 21.9013 9.89961C21.1566 10.1732 20.3529 10.1341 19.6278 9.82148C18.9025 9.50883 18.3342 8.9032 18.0597 8.18024C17.9029 7.82852 17.8246 7.43774 17.8246 7.04695C17.8246 6.65625 17.9029 6.26547 18.0401 5.89422C18.1969 5.52297 18.4125 5.21039 18.6869 4.91727C18.9417 4.66328 19.2749 4.42883 19.6474 4.29203Z" fill="#AA6594"/>
<path fill-rule="evenodd" clip-rule="evenodd" d="M20.4117 1.43937L20.0785 0.911797L19.4709 1.04859C18.8045 1.18539 18.1773 1.43937 17.5893 1.79102L17.0404 2.1232L17.2953 3.35414C17.1189 3.53 16.9621 3.70586 16.8053 3.90125L15.5704 3.76445L15.2961 4.33109C15.0021 4.9368 14.8257 5.58156 14.7472 6.24586L14.6885 6.85156L15.7861 7.43773C15.8057 7.69172 15.8449 7.9457 15.9036 8.19977L15.0412 9.07898L15.3157 9.62609C15.6096 10.2513 16.0017 10.8179 16.4721 11.3064L16.9032 11.7558L17.9813 11.3259C18.1968 11.4627 18.4125 11.5995 18.6477 11.7167L18.8045 12.9477L19.3925 13.0844C20.0589 13.2602 20.7449 13.2993 21.4113 13.2407L22.0581 13.1821L22.3521 11.9707C22.5873 11.8926 22.8029 11.8144 23.0185 11.7167L24.0769 12.381L24.5865 11.9902C25.1157 11.5604 25.5665 11.0524 25.9389 10.4858L26.2721 9.9582L25.5273 8.94219C25.6254 8.70773 25.6841 8.47328 25.7429 8.2193L26.8993 7.80898V7.18375C26.8993 6.49984 26.7818 5.81602 26.5661 5.17125L26.3701 4.58508L25.1354 4.54602C24.9982 4.33109 24.8609 4.11617 24.6845 3.90125L25.0765 2.72891L24.6061 2.33812C24.0769 1.90828 23.4889 1.55656 22.8421 1.30258L22.2541 1.06813L21.4701 2.02555C21.2153 1.98641 20.9801 1.96688 20.7253 1.96688L20.3921 1.41984L20.4117 1.43937ZM19.6473 1.92781C19.0789 2.04508 18.5496 2.26 18.0596 2.55305L18.2949 3.68633C17.8832 3.99891 17.5304 4.38969 17.2561 4.83906L16.1389 4.70234C15.884 5.22984 15.7272 5.77695 15.6489 6.36312L16.6681 6.91016C16.6485 7.43773 16.7464 7.98484 16.9425 8.47328L16.1389 9.29391C16.3936 9.82148 16.7072 10.3099 17.0993 10.7398L18.1381 10.2904C18.5496 10.6421 19.0005 10.8961 19.5101 11.072L19.6473 12.2247C20.2157 12.3615 20.7841 12.4005 21.3721 12.3615L21.6465 11.2477C22.1561 11.1501 22.6461 10.9547 23.0969 10.6812L24.0573 11.2869C24.5081 10.9352 24.9001 10.5053 25.1941 10.0169L24.5081 9.05945C24.7433 8.59055 24.9001 8.0825 24.9393 7.555L26.0173 7.18375C26.0173 6.59758 25.9193 6.01141 25.7233 5.4643L24.5865 5.42524C24.3709 4.9368 24.0573 4.48742 23.6849 4.11617L24.0377 3.02195C23.5869 2.65078 23.0773 2.35766 22.5285 2.14273L21.8033 3.02195C21.2937 2.88523 20.7645 2.84617 20.2549 2.90477L19.6277 1.94734L19.6473 1.92781ZM19.6473 4.29203C20.3921 4.01844 21.1957 4.05758 21.9209 4.37016C22.6461 4.68281 23.2145 5.28844 23.4889 6.01141C23.6457 6.36313 23.7241 6.75391 23.7241 7.14469C23.7241 7.53539 23.6457 7.92617 23.5085 8.27789C23.3517 8.64914 23.1361 8.96172 22.8617 9.25484C22.5873 9.52836 22.2541 9.74328 21.9013 9.89961C21.1565 10.1731 20.3529 10.1341 19.6277 9.82148C18.9025 9.50883 18.3341 8.90313 18.0596 8.18023C17.9029 7.82852 17.8245 7.43773 17.8245 7.04695C17.8245 6.65617 17.9029 6.26539 18.04 5.89414C18.1968 5.52297 18.4125 5.21031 18.6869 4.91727C18.9417 4.6632 19.2749 4.42875 19.6473 4.29203ZM19.9805 5.11266C20.5097 4.91727 21.0781 4.9368 21.5877 5.17125C22.0973 5.4057 22.4893 5.81602 22.6853 6.34359C22.8029 6.59758 22.8617 6.87109 22.8617 7.14469C22.8617 7.4182 22.8225 7.69172 22.7049 7.9457C22.6069 8.19977 22.4501 8.43422 22.2541 8.62961C22.0581 8.825 21.8229 8.98125 21.5681 9.07898C21.0389 9.27438 20.4705 9.25484 19.9609 9.02039C19.4513 8.78594 19.0593 8.37563 18.8632 7.84805C18.7653 7.59406 18.7064 7.32047 18.6869 7.04695C18.6869 6.77344 18.7457 6.49984 18.8437 6.24586C18.9417 5.99188 19.0985 5.75742 19.2945 5.56203C19.4905 5.38617 19.7257 5.22984 19.9805 5.11266Z" fill="#3D4553"/>
<path fill-rule="evenodd" clip-rule="evenodd" d="M24.5278 21.193C24.0574 21.2907 23.6067 21.4666 23.2146 21.7205L23.391 22.6389C23.0382 22.8929 22.7442 23.2251 22.5286 23.5963L21.5682 23.4986C21.3722 23.9284 21.235 24.3778 21.1763 24.8468L21.9995 25.2766C21.9799 25.7065 22.0582 26.1363 22.1954 26.5271L21.5486 27.1719C21.7446 27.6017 22.0191 27.9925 22.3523 28.3247L23.195 27.9534C23.5282 28.227 23.9006 28.4419 24.3123 28.5787L24.4299 29.536C24.8806 29.6533 25.3706 29.6728 25.8411 29.6337L26.0763 28.735C26.5074 28.6568 26.8995 28.5005 27.2719 28.266L28.0559 28.7545C28.4283 28.4614 28.7615 28.1097 29.0163 27.719L28.4675 26.9765C28.6635 26.5857 28.7811 26.1754 28.8399 25.7651L29.7219 25.4525C29.7219 24.9835 29.6435 24.5146 29.5063 24.0652H28.5459C28.3695 23.6745 28.1147 23.3227 27.8207 23.0102L28.1147 22.1309C27.7423 21.8378 27.3307 21.6034 26.8799 21.4275L26.2919 22.1309C25.8803 22.0137 25.4491 21.9941 25.0178 22.0332L24.5083 21.2516L24.5278 21.193ZM24.5278 23.1273C25.1355 22.8929 25.8019 22.8929 26.3899 23.1664C26.9779 23.4205 27.4483 23.9089 27.6835 24.4951C27.8011 24.7881 27.8599 25.1008 27.8599 25.4329C27.8599 25.7455 27.8011 26.0581 27.6639 26.3513C27.5463 26.6443 27.3503 26.9179 27.1347 27.1328C26.8995 27.3477 26.6447 27.5236 26.3311 27.6408C25.7235 27.8752 25.057 27.8752 24.4691 27.6017C23.881 27.3477 23.4106 26.8592 23.1755 26.2731C23.0578 25.98 22.9991 25.6674 22.9991 25.3352C22.9991 25.0226 23.0578 24.6905 23.195 24.3973C23.3127 24.1043 23.5087 23.8308 23.7438 23.6159C23.9791 23.4009 24.2535 23.2251 24.5278 23.1273Z" fill="#AA6594"/>
<path fill-rule="evenodd" clip-rule="evenodd" d="M25.2921 20.7045L24.9589 20.177L24.3513 20.2942C23.8025 20.431 23.2929 20.6459 22.8029 20.9195L22.254 21.2516L22.45 22.2677C22.3521 22.3653 22.254 22.4826 22.1561 22.5998L21.1172 22.5021L20.8429 23.0491C20.588 23.5572 20.4116 24.1043 20.3529 24.6904L20.2744 25.3156L21.2348 25.8041C21.2544 25.9605 21.274 26.0972 21.2936 26.2535L20.5684 26.9765L20.8429 27.543C21.078 28.0706 21.4112 28.5395 21.8032 28.9498L22.2344 29.3992L23.1948 28.9694C23.3125 29.0476 23.4497 29.1257 23.5868 29.2038L23.7044 30.2198L24.3121 30.3762C24.8608 30.513 25.4489 30.552 26.0172 30.4934L26.6445 30.4348L26.8993 29.4774L27.3305 29.3211L28.2125 29.8682L28.7221 29.4774C29.1729 29.1257 29.5649 28.6959 29.8785 28.227L30.2117 27.6994L29.5845 26.8788C29.6433 26.742 29.6825 26.6052 29.7021 26.4489L30.6625 26.0972V25.472C30.6625 24.9053 30.5841 24.3388 30.3881 23.7916L30.1921 23.2055H29.1533L28.8985 22.8342L29.2317 21.8769L28.7417 21.4861C28.2909 21.1344 27.7813 20.8413 27.2521 20.6459L26.6641 20.431L25.9977 21.2125H25.5272L25.3117 20.8609L25.2921 20.7045ZM24.5276 21.193C24.0572 21.2907 23.6064 21.4666 23.2144 21.7205L23.3908 22.6388C23.038 22.8929 22.744 23.225 22.5284 23.5962L21.568 23.4986C21.372 23.9284 21.2348 24.3778 21.1761 24.8467L21.9993 25.2766C21.9796 25.7064 22.058 26.1362 22.1953 26.527L21.5484 27.1718C21.7444 27.6017 22.0189 27.9924 22.3521 28.3246L23.1948 27.9534C23.528 28.227 23.9004 28.4419 24.3121 28.5786L24.4297 29.536C24.8804 29.6533 25.3704 29.6728 25.8409 29.6337L26.0761 28.7349C26.5073 28.6568 26.8993 28.5005 27.2717 28.266L28.0557 28.7545C28.4281 28.4614 28.7613 28.1097 29.0161 27.7189L28.4673 26.9765C28.6633 26.5857 28.7809 26.1754 28.8396 25.7651L29.7217 25.4524C29.7217 24.9835 29.6433 24.5146 29.5061 24.0652H28.5457C28.3693 23.6744 28.1145 23.3227 27.8205 23.0101L28.1145 22.1309C27.7421 21.8378 27.3305 21.6033 26.8796 21.4275L26.2917 22.1309C25.88 22.0136 25.4489 21.9941 25.0176 22.0331L24.5081 21.2516L24.5276 21.193ZM24.5276 23.1078C25.1353 22.8734 25.8017 22.8734 26.3897 23.1469C26.9777 23.4009 27.4481 23.8893 27.6832 24.4755C27.8009 24.7686 27.8597 25.0812 27.8597 25.4134C27.8597 25.7259 27.8009 26.0386 27.6637 26.3316C27.5461 26.6248 27.35 26.8983 27.1345 27.1132C26.8993 27.3281 26.6445 27.504 26.3309 27.6212C25.7232 27.8557 25.0568 27.8557 24.4689 27.5821C23.8808 27.3281 23.4104 26.8397 23.1753 26.2535C23.0576 25.9605 22.9989 25.6478 22.9989 25.3156C22.9989 25.003 23.0576 24.6709 23.1948 24.3778C23.3125 24.0847 23.5085 23.8112 23.7436 23.5962C23.9789 23.3813 24.2532 23.2055 24.5276 23.1078ZM24.8608 23.948C25.2332 23.7916 25.6645 23.8112 26.0368 23.9675C26.4093 24.1238 26.7032 24.4364 26.86 24.8077C26.9385 24.9835 26.9777 25.1984 26.9777 25.3938C26.9777 25.5892 26.9385 25.7846 26.86 25.98C26.7817 26.1559 26.6641 26.3316 26.5268 26.4684C26.3896 26.6052 26.2132 26.7224 26.0172 26.7811C25.6449 26.9373 25.2136 26.9178 24.8413 26.7615C24.4689 26.6052 24.1749 26.2926 24.0181 25.9213C23.9396 25.7455 23.9004 25.5305 23.9004 25.3352C23.9004 25.1398 23.9396 24.9445 24.0181 24.7491C24.0964 24.5732 24.214 24.3973 24.3513 24.2605C24.5081 24.1434 24.6844 24.0261 24.8608 23.948Z" fill="#3D4553"/>
<path fill-rule="evenodd" clip-rule="evenodd" d="M14.3159 21.4274L14.3551 8.37562L21.1955 8.29742L24.2336 11.365L24.1356 21.193L14.3159 21.4274Z" fill="white"/>
<path fill-rule="evenodd" clip-rule="evenodd" d="M13.5319 7.57437L13.4731 22.2675L24.9392 21.994L25.0372 11.0327L21.5288 7.47672L13.5319 7.57437ZM14.2963 21.4273L14.3551 8.37547L21.1956 8.29734L24.2336 11.3649L24.1356 21.1929L14.2963 21.4273Z" fill="#3D4553"/>
<path fill-rule="evenodd" clip-rule="evenodd" d="M20.7056 11.2478C20.7056 11.3064 20.7056 11.3455 20.7252 11.4041C20.7448 11.4627 20.784 11.5018 20.8036 11.5409C20.8428 11.58 20.882 11.6191 20.9408 11.6386C20.9996 11.6581 21.0388 11.6777 21.0976 11.6777L24.4492 11.7362C24.5276 11.7362 24.606 11.7167 24.6845 11.6777C24.7628 11.6386 24.802 11.5604 24.8413 11.5018C24.8804 11.4237 24.8804 11.3455 24.8608 11.2673C24.8413 11.1892 24.802 11.111 24.7432 11.0524L21.4112 7.67227C21.3524 7.61359 21.274 7.57453 21.1956 7.555C21.1172 7.53547 21.0388 7.555 20.9604 7.57453C20.882 7.61359 20.8232 7.65266 20.784 7.73086C20.7448 7.78945 20.7056 7.86766 20.7056 7.96531V11.2478ZM21.5484 10.8375V8.92273L23.4692 10.8375H21.5484Z" fill="#3D4553"/>
<path fill-rule="evenodd" clip-rule="evenodd" d="M11.0428 8.66859C3.20272 11.5408 4.06514 23.0686 13.6692 24.9834C13.6692 24.9834 14.9237 26.6441 15.6684 26.8395C16.4133 27.0349 18.0988 26.1557 18.0988 26.1557L11.0428 8.62953V8.66859Z" fill="#F1CEE6"/>
<path fill-rule="evenodd" clip-rule="evenodd" d="M19.8236 26.8396L11.8072 6.92969L10.5527 7.39859C9.35717 7.82844 8.25951 8.49281 7.31873 9.3525C6.37795 10.2122 5.6331 11.2477 5.12349 12.4201C4.61389 13.5728 4.33951 14.8233 4.3199 16.0934C4.30029 17.3634 4.55514 18.6138 5.04514 19.7862C5.71154 21.4274 6.7699 22.8733 8.14193 24.0065C9.51396 25.1398 11.1408 25.9212 12.8851 26.273C13.2183 26.6833 13.5908 27.0741 13.9828 27.4258C14.3552 27.7774 14.806 28.051 15.296 28.2073C15.8056 28.305 16.3348 28.2855 16.8444 28.1487C17.4912 27.9533 18.1184 27.7188 18.726 27.4258L19.8236 26.8396ZM11.0427 8.66859C3.20271 11.5408 4.06506 23.0687 13.6692 24.9834C13.6692 24.9834 14.9236 26.6442 15.6684 26.8396C16.4132 27.035 18.0988 26.1558 18.0988 26.1558L11.0427 8.62953V8.66859Z" fill="#AA6594"/>
<path fill-rule="evenodd" clip-rule="evenodd" d="M4.14371 12.0879L1.88965 11.3064C1.83082 11.2868 1.79168 11.2868 1.73285 11.2868C1.67402 11.2868 1.63488 11.3064 1.57606 11.3259C1.51723 11.3455 1.47809 11.3845 1.43887 11.4236C1.39965 11.4627 1.38004 11.5018 1.36043 11.5604C1.34082 11.619 1.34082 11.658 1.34082 11.7167C1.34082 11.7753 1.36043 11.8144 1.38004 11.873C1.39965 11.9121 1.43887 11.9707 1.47809 11.9902C1.51723 12.0293 1.55645 12.0488 1.61527 12.0684L3.86926 12.8499C3.96731 12.889 4.08488 12.889 4.18285 12.8304C4.2809 12.7913 4.35926 12.6936 4.39848 12.5959C4.4377 12.4982 4.4377 12.381 4.37887 12.2833C4.33965 12.2052 4.24168 12.127 4.14371 12.0879Z" fill="#3D4553"/>
<path fill-rule="evenodd" clip-rule="evenodd" d="M3.04602 21.1929L0.8704 22.1503C0.772431 22.1894 0.693993 22.287 0.654775 22.3848C0.615556 22.4824 0.615556 22.5997 0.674384 22.6973C0.693993 22.7365 0.733212 22.7951 0.77243 22.8341C0.811571 22.8732 0.85079 22.8927 0.909618 22.9123C0.968368 22.9319 1.00759 22.9319 1.06641 22.9319C1.12516 22.9319 1.16438 22.9123 1.22321 22.8927L3.39884 21.9354C3.45759 21.9159 3.49681 21.8963 3.55563 21.8572C3.59485 21.8181 3.63399 21.7791 3.6536 21.7205C3.67321 21.6618 3.69282 21.6032 3.69282 21.5446C3.69282 21.486 3.67321 21.4273 3.6536 21.3687C3.63399 21.3102 3.59485 21.2711 3.55563 21.232C3.51642 21.1929 3.45759 21.1734 3.39884 21.1538C3.34001 21.1343 3.28118 21.1343 3.22243 21.1343C3.1636 21.1538 3.10477 21.1734 3.04602 21.1929Z" fill="#3D4553"/>
<path fill-rule="evenodd" clip-rule="evenodd" d="M9.8082 27.4845L8.84781 29.6728C8.8282 29.7314 8.80859 29.7705 8.80859 29.8291C8.80859 29.8877 8.80859 29.9463 8.8282 29.9854C8.84781 30.0441 8.88703 30.0831 8.90664 30.1222C8.94578 30.1613 8.985 30.2003 9.04383 30.2199C9.10266 30.2395 9.1418 30.259 9.20063 30.259C9.25945 30.259 9.3182 30.259 9.35742 30.2395C9.41625 30.2199 9.45539 30.1808 9.49461 30.1613C9.53383 30.1222 9.57305 30.0831 9.59266 30.0245L10.553 27.8362C10.5923 27.7384 10.5923 27.6213 10.553 27.5235C10.5138 27.4259 10.4355 27.3477 10.3374 27.2891C10.2786 27.2695 10.2395 27.25 10.1806 27.25C10.1218 27.25 10.063 27.25 10.0238 27.2695C9.965 27.2891 9.92586 27.3281 9.88664 27.3477C9.86703 27.3868 9.82781 27.4259 9.8082 27.4845Z" fill="#3D4553"/>
<path fill-rule="evenodd" clip-rule="evenodd" d="M9.12206 4.48734L10.0825 6.6757C10.1217 6.77336 10.2 6.85148 10.2981 6.89063C10.396 6.92969 10.5137 6.92969 10.6117 6.89063C10.7096 6.85148 10.7881 6.77336 10.8273 6.6757C10.8664 6.57797 10.8664 6.46078 10.8273 6.36305L9.86682 4.17469C9.82768 4.07703 9.72964 4.01844 9.63167 3.9793C9.53362 3.94023 9.43565 3.94023 9.33768 3.9793C9.23964 4.01844 9.18089 4.09656 9.14167 4.1943C9.08284 4.29195 9.08284 4.38961 9.12206 4.48734Z" fill="#3D4553"/>
</svg>
