<svg width="360" height="322" viewBox="0 0 360 322" fill="none" xmlns="http://www.w3.org/2000/svg">
<path d="M214.721 33.7795C198.82 44.1905 185.492 59.1092 168.645 67.5882C150.098 76.916 128.95 77.6283 109.268 83.629C74.8013 94.1375 45.1578 121.858 30.5161 157.276C15.8744 192.695 16.5043 235.138 32.1989 270.02C36.7975 280.246 42.737 289.974 50.8453 297.204C68.2318 312.718 92.7637 314.533 115.163 312.054C137.562 309.576 159.916 303.526 182.315 305.985C197.974 307.712 213.092 313.557 228.796 314.728C244.419 315.889 260.059 312.357 274.926 307.02C302.797 297.009 329.29 279.904 346.587 254.184C363.883 228.465 370.687 193.339 359.609 163.862C349.449 136.815 326.33 117.896 313.722 92.0787C307.746 79.8432 304.263 66.3002 297.991 54.2403C281.702 22.91 241.935 15.9629 214.721 33.7795Z" fill="#E8F7FF"/>
<path d="M135.294 30.102C132.576 31.5558 129.894 33.195 127.761 35.5269C125.692 37.7906 124.234 40.6007 122.821 43.3912C120.319 48.3479 117.817 54.1241 119.608 59.4223C120.787 62.9056 123.685 65.462 126.888 66.7792C130.092 68.0866 133.575 68.3013 136.995 68.2525C147.362 68.1062 157.693 65.6473 167.169 61.0907C170.022 59.715 172.829 58.1343 175.196 55.9292C177.599 53.6948 179.507 50.8652 180.956 47.8112C183.485 42.4838 184.501 35.5367 181.109 30.7947C178.688 27.409 174.638 25.9942 170.769 25.1453C158.314 22.4133 146.714 23.9842 135.294 30.102Z" fill="#E8F7FF"/>
<path d="M295.174 311.773C295.012 311.773 294.85 311.695 294.751 311.539C294.571 311.285 294.625 310.924 294.859 310.729C313.461 295.518 327.976 275.125 336.823 251.767C338.343 247.756 339.18 241.795 337.444 238.165C336.697 236.604 335.527 235.618 333.979 235.248C331.918 234.74 329.776 235.648 327.922 236.545C324.044 238.399 320.282 240.643 316.745 243.209C315.017 244.458 313.308 245.815 311.679 247.22C311.481 247.386 311.202 247.688 310.869 248.039C309.231 249.766 307.899 251.064 306.855 250.635C306.594 250.527 306.45 250.215 306.531 249.932C306.792 248.976 307.107 248.078 307.404 247.21C308.088 245.239 308.727 243.366 308.763 241.092C308.79 239.287 308.421 238.019 307.665 237.326C306.981 236.701 305.928 236.487 304.542 236.672C301.456 237.092 298.585 238.994 296.668 241.882C296.533 242.087 296.281 242.175 296.065 242.087C295.84 242 295.696 241.775 295.705 241.512C295.768 239.999 296.056 238.448 296.335 236.955C296.479 236.184 296.623 235.413 296.731 234.652C299.332 216.816 300.628 198.619 300.565 180.568C300.547 174.255 299.476 159.327 290.009 156.888C284.159 155.385 278.31 159.942 274.773 164.703C266.179 176.305 264.154 192.326 262.525 205.205C262.489 205.498 262.255 205.703 261.985 205.703C261.715 205.693 261.49 205.469 261.463 205.176C261.166 201.663 259.348 198.287 256.477 195.926C253.607 193.565 250.115 192.579 246.911 193.214C243.708 193.858 240.783 196.131 238.875 199.449C237.588 201.683 236.904 204.161 236.868 206.571C237.264 207.752 237.417 208.991 237.282 210.24C237.255 210.513 237.048 210.728 236.796 210.747C236.517 210.767 236.31 210.591 236.238 210.328C235.941 209.176 235.797 207.986 235.797 206.776C235.311 205.469 234.465 204.249 233.296 203.244C230.614 200.922 226.807 200.122 223.828 201.254C217.835 203.537 214.712 210.679 213.785 216.602C213.785 216.602 213.785 216.602 213.785 216.611C213.74 216.924 213.47 217.129 213.173 217.09C212.885 217.041 212.687 216.738 212.732 216.426C213.227 213.089 211.823 209.879 208.863 207.596C204.867 204.513 199.341 203.966 195.427 206.259C187.687 210.806 185.024 221.353 184.151 229.403C184.124 229.696 183.89 229.91 183.62 229.91C183.62 229.91 183.611 229.91 183.602 229.91C183.323 229.901 183.107 229.667 183.089 229.374L181.388 200.229C180.956 192.765 178.958 180.022 170.481 178.588C162.427 177.222 156.991 187.574 155.524 190.774C150.962 200.697 148.613 211.762 148.703 222.846C148.739 223.324 148.748 223.802 148.73 224.281C148.712 224.593 148.46 224.817 148.19 224.827C147.902 224.827 147.668 224.573 147.659 224.271C147.65 223.812 147.641 223.363 147.632 222.905C147.389 219.968 145.931 217.06 143.573 214.933C140.864 212.484 137.436 211.489 134.403 212.269C131.37 213.05 128.716 215.597 127.294 219.099C125.881 222.602 125.944 226.447 127.474 229.393C127.6 229.627 127.555 229.93 127.366 230.106C127.177 230.281 126.898 230.301 126.7 230.145C123.505 227.657 122.371 223.276 121.273 219.031C120.058 214.348 118.906 209.918 115.163 208.425C111.302 206.883 106.991 210.016 105.21 213.811C103.266 217.948 103.329 222.905 103.383 227.276C103.383 227.569 103.194 227.813 102.924 227.852C102.663 227.9 102.411 227.715 102.33 227.442C97.6952 209.986 87.805 194.287 74.5042 183.252C68.8167 178.529 60.8254 175.758 56.7217 180.803C54.8859 183.066 54.4179 186.364 54.1839 189.584C52.8161 208.698 56.5327 228.613 64.65 245.649C64.776 245.902 64.704 246.215 64.488 246.381C64.2721 246.546 63.9751 246.517 63.7951 246.302C61.4643 243.59 58.8185 240.526 55.4528 239.082C52.4471 237.794 48.1455 238.097 46.1026 241.199C45.0587 242.79 44.7617 244.839 44.6358 246.449C44.2218 251.445 44.9597 256.528 46.7776 261.143C46.8856 261.426 46.7776 261.748 46.5256 261.885C46.2736 262.021 45.9676 261.924 45.8237 261.66C43.1959 256.694 39.8482 251.22 34.9346 248.176C30.534 245.454 23.7486 244.946 19.8339 249.356C12.7605 257.338 21.0488 270.686 24.9455 276.052C33.7377 288.171 43.7088 301.918 57.6846 308.592C57.9546 308.719 58.0716 309.061 57.9546 309.353C57.8376 309.646 57.5227 309.783 57.2527 309.646C43.0339 302.855 32.9818 288.99 24.1085 276.764C20.0409 271.154 11.4016 257.192 19.06 248.547C23.3526 243.707 30.705 244.224 35.4566 247.161C39.1642 249.454 41.999 253.035 44.3028 256.772C43.5289 253.376 43.2679 249.835 43.5649 246.342C43.7088 244.595 44.0328 242.351 45.2297 240.526C47.6145 236.906 52.3751 236.516 55.8398 238.009C58.2966 239.063 60.3574 240.887 62.1752 242.829C54.9399 226.212 51.8081 207.859 53.122 189.486C53.365 186.062 53.878 182.549 55.9208 180.032C60.4744 174.421 69.0777 177.29 75.1521 182.325C87.715 192.745 97.2632 207.245 102.312 223.48C102.384 220.036 102.762 216.465 104.256 213.274C106.244 209.05 111.113 205.576 115.523 207.332C119.788 209.03 121.057 213.948 122.299 218.709C123.109 221.822 123.937 225.012 125.584 227.344C124.918 224.603 125.161 221.5 126.322 218.621C127.87 214.787 130.803 211.987 134.16 211.128C137.517 210.269 141.296 211.352 144.257 214.026C145.769 215.392 146.939 217.05 147.713 218.846C148.145 208.932 150.485 199.146 154.57 190.248C156.127 186.872 161.878 175.963 170.643 177.436C179.849 178.988 181.991 192.326 182.45 200.141L183.854 224.173C185.276 216.914 188.353 209.079 194.914 205.225C199.17 202.727 205.155 203.312 209.475 206.63C211.589 208.259 212.993 210.328 213.578 212.611C215.126 207.371 218.294 202.112 223.468 200.151C226.825 198.873 230.947 199.731 233.952 202.327C234.753 203.02 235.428 203.8 235.95 204.639C236.238 202.639 236.913 200.649 237.966 198.814C240.027 195.214 243.222 192.755 246.713 192.053C250.205 191.35 254.003 192.414 257.116 194.98C259.348 196.814 260.995 199.224 261.868 201.859C263.479 189.447 265.855 174.851 273.945 163.952C275.754 161.503 282.287 153.678 290.252 155.736C294.472 156.819 301.573 161.493 301.627 180.539C301.681 198.648 300.385 216.904 297.775 234.799C297.658 235.57 297.514 236.36 297.37 237.15C297.217 237.98 297.055 238.829 296.938 239.668C298.954 237.365 301.591 235.862 304.398 235.482C306.099 235.248 307.422 235.56 308.34 236.399C309.366 237.336 309.852 238.868 309.816 241.073C309.78 243.551 309.105 245.502 308.385 247.571C308.187 248.137 307.989 248.713 307.8 249.308C308.547 248.82 309.663 247.639 310.104 247.171C310.464 246.79 310.779 246.459 310.986 246.273C312.642 244.839 314.37 243.473 316.124 242.204C319.715 239.599 323.531 237.326 327.463 235.443C329.623 234.409 331.927 233.53 334.186 234.077C336.058 234.535 337.462 235.716 338.361 237.589C340.269 241.561 339.45 247.776 337.785 252.157C328.867 275.72 314.235 296.279 295.471 311.607C295.399 311.734 295.282 311.773 295.174 311.773Z" fill="#B0E3FF"/>
<path d="M71.4084 166.468C74.8371 166.468 74.8371 160.692 71.4084 160.692C67.9797 160.702 67.9797 166.468 71.4084 166.468Z" fill="#B0E3FF"/>
<path d="M133.782 66.0751C137.211 66.0751 137.211 60.2988 133.782 60.2988C130.353 60.2988 130.344 66.0751 133.782 66.0751Z" fill="#B0E3FF"/>
<path d="M263.11 123.749C264.82 123.749 264.829 120.861 263.11 120.861C261.4 120.861 261.391 123.749 263.11 123.749Z" fill="#B0E3FF"/>
<path d="M120.041 101.036C121.751 101.036 121.76 98.1475 120.041 98.1475C118.331 98.1475 118.331 101.036 120.041 101.036Z" fill="#B0E3FF"/>
<path d="M288.741 120.862C290.45 120.862 290.459 117.974 288.741 117.974C287.022 117.974 287.022 120.862 288.741 120.862Z" fill="#B0E3FF"/>
<path d="M349.333 192.227C351.042 192.227 351.051 189.339 349.333 189.339C347.614 189.339 347.614 192.227 349.333 192.227Z" fill="white"/>
<path d="M115.91 75.4321C117.62 75.4321 117.629 72.5439 115.91 72.5439C114.2 72.5439 114.191 75.4321 115.91 75.4321Z" fill="#59D6B8"/>
<path d="M179.867 2.88812C181.577 2.88812 181.586 0 179.867 0C178.157 0 178.157 2.88812 179.867 2.88812Z" fill="#59D6B8"/>
<path d="M202.607 25.5942C204.317 25.5942 204.326 22.7061 202.607 22.7061C200.889 22.7061 200.889 25.5942 202.607 25.5942Z" fill="#59D6B8"/>
<path d="M220.653 285.222C222.362 285.222 222.371 282.334 220.653 282.334C218.943 282.334 218.943 285.222 220.653 285.222Z" fill="#59D6B8"/>
<path d="M316.718 176.38C318.428 176.38 318.437 173.492 316.718 173.492C314.999 173.492 314.999 176.38 316.718 176.38Z" fill="#59D6B8"/>
<path d="M54.5002 107.182C56.21 107.182 56.219 104.294 54.5002 104.294C52.7903 104.294 52.7903 107.182 54.5002 107.182Z" fill="#59D6B8"/>
<path d="M338.947 149.617C340.657 149.617 340.666 146.729 338.947 146.729C337.237 146.729 337.228 149.617 338.947 149.617Z" fill="#59D6B8"/>
<path d="M25.9713 215.799C27.6811 215.799 27.6901 212.911 25.9713 212.911C24.2524 212.911 24.2524 215.799 25.9713 215.799Z" fill="#8ABFA3"/>
<path d="M256.992 57.4501C258.702 57.4501 258.711 54.562 256.992 54.562C255.283 54.562 255.283 57.4501 256.992 57.4501Z" fill="#B0E3FF"/>
<path d="M304.947 269.746C306.657 269.746 306.666 266.858 304.947 266.858C303.238 266.858 303.238 269.746 304.947 269.746Z" fill="white"/>
<path d="M28.6269 185.143C28.6269 185.016 28.6269 184.889 28.6269 184.762C28.6269 183.25 27.403 181.806 25.9631 181.874C24.5232 181.942 23.2993 183.142 23.2993 184.762C23.2993 184.889 23.2993 185.016 23.2993 185.143C23.2993 186.655 24.5232 188.099 25.9631 188.031C27.412 187.953 28.6269 186.753 28.6269 185.143Z" fill="#B0E3FF"/>
<path d="M321.686 263.464C323.612 263.464 323.612 260.215 321.686 260.215C319.76 260.225 319.76 263.464 321.686 263.464Z" fill="#8E6DAA"/>
<path d="M345.471 180.712C348.9 180.712 348.9 174.936 345.471 174.936C342.043 174.936 342.043 180.712 345.471 180.712Z" fill="#8E6DAA"/>
<path d="M233.647 56.0062C237.075 56.0062 237.075 50.23 233.647 50.23C230.218 50.23 230.209 56.0062 233.647 56.0062Z" fill="#B0E3FF"/>
<path d="M59.0178 263.473C62.4465 263.473 62.4465 257.696 59.0178 257.696C55.5891 257.696 55.5891 263.473 59.0178 263.473Z" fill="#E9F2DE"/>
<path fill-rule="evenodd" clip-rule="evenodd" d="M44.9577 149.04C42.9299 146.562 41.5575 143.525 41.7868 140.122C42.4476 130.317 55.5572 132.474 58.1073 137.423C60.6574 142.371 60.3543 154.924 57.0586 155.809C55.7442 156.161 52.9443 155.297 50.0946 153.509L51.8833 166.684H41.3218L44.9577 149.04Z" fill="#B28B67"/>
<path fill-rule="evenodd" clip-rule="evenodd" d="M62.7857 130.562C62.567 129.762 61.9787 129.077 61.1859 128.873C60.9937 128.824 60.7951 128.804 60.5973 128.812C60.5264 128.815 60.5065 128.837 60.4733 128.785C60.4487 128.747 60.4482 128.653 60.438 128.608C60.4065 128.468 60.3671 128.33 60.3185 128.195C60.1526 127.736 59.8739 127.329 59.5378 126.987C58.9093 126.347 58.06 125.904 57.1776 125.825C56.6947 125.781 56.2152 125.862 55.7587 126.026C55.5223 126.111 55.2931 126.216 55.0699 126.333C55.0026 126.368 54.7846 126.54 54.7171 126.528C54.6426 126.516 54.4929 126.323 54.4323 126.275C53.6836 125.677 52.759 125.442 51.8264 125.449C50.7738 125.457 49.7602 125.512 48.8823 126.18C48.6964 126.321 48.5195 126.476 48.3509 126.639C48.2622 126.725 48.1762 126.814 48.0943 126.907C48.0448 126.963 47.9966 127.02 47.9503 127.079C47.8716 127.179 47.8842 127.211 47.7741 127.142C47.3516 126.875 46.862 126.75 46.3688 126.813C46.076 126.85 45.7911 126.942 45.5206 127.062C45.4285 127.103 45.2153 127.267 45.1171 127.268C45.0197 127.27 44.8095 127.118 44.7092 127.08C44.1674 126.872 43.5834 126.82 43.0139 126.916C42.4264 127.016 41.8494 127.26 41.3516 127.597C41.1122 127.759 40.9034 127.939 40.7356 128.18C40.6632 128.284 40.5977 128.394 40.5156 128.491C40.4675 128.547 40.3723 128.606 40.3465 128.677C40.362 128.634 39.7041 128.37 39.642 128.353C39.3113 128.263 38.9745 128.282 38.6506 128.393C38.0416 128.601 37.5179 129.069 37.0874 129.549C36.8663 129.795 36.6729 130.068 36.5086 130.358C36.4299 130.497 36.3579 130.64 36.2921 130.786C36.2602 130.857 36.239 130.945 36.197 131.009C36.1428 131.091 36.1064 131.093 36.0083 131.128C35.5098 131.31 35.0555 131.618 34.7095 132.034C34.3595 132.454 34.1324 132.972 34.0372 133.518C34.0316 133.55 34.0283 133.683 34.0102 133.701C33.9854 133.725 33.8852 133.714 33.8473 133.719C33.716 133.735 33.5856 133.759 33.457 133.79C33.2198 133.849 32.989 133.935 32.7707 134.047C31.9196 134.486 31.311 135.307 31.0131 136.232C30.7005 137.203 30.7061 138.315 31.0796 139.267C31.14 139.421 31.2118 139.571 31.2961 139.712C31.3479 139.799 31.3646 139.799 31.331 139.89C31.2935 139.991 31.225 140.089 31.1805 140.188C31.0353 140.511 30.9338 140.853 30.8697 141.203C30.7645 141.777 30.7124 142.379 30.8162 142.957C30.8644 143.225 30.9483 143.488 31.0764 143.727C31.1417 143.849 31.2181 143.964 31.3044 144.071C31.3492 144.127 31.3967 144.18 31.4465 144.23C31.475 144.259 31.5123 144.285 31.5365 144.317C31.5955 144.396 31.6079 144.331 31.5775 144.447C31.5349 144.609 31.4384 144.77 31.3792 144.927C31.3183 145.09 31.2632 145.255 31.2129 145.421C31.1109 145.759 31.0246 146.102 30.9707 146.451C30.8671 147.121 30.8853 147.836 31.1899 148.451C31.3201 148.714 31.507 148.945 31.7336 149.125C31.8445 149.213 31.9646 149.288 32.0906 149.351C32.1554 149.383 32.238 149.396 32.2676 149.461C32.2994 149.532 32.2522 149.671 32.2414 149.749C32.1478 150.431 32.1008 151.147 32.2955 151.815C32.4748 152.431 32.8696 152.974 33.3822 153.334C34.3766 154.032 35.7169 153.992 36.7618 153.434C37.0341 153.288 37.2889 153.107 37.5162 152.894C38.095 153.705 39.286 153.679 40.1319 153.448C41.1858 153.16 42.0314 152.397 42.5187 151.395C43.1849 152.239 44.583 151.965 45.045 151.049C45.1581 150.825 45.2252 150.578 45.2582 150.328C45.2756 150.197 45.2645 150.064 45.2775 149.933C45.2942 149.767 45.4008 149.606 45.4621 149.445C45.5815 149.132 45.6556 148.809 45.6588 148.471C45.6605 148.295 45.639 148.123 45.6229 147.948C45.6085 147.791 45.6504 147.644 45.6742 147.489C45.4039 147.535 45.0746 147.46 44.82 147.378C44.5701 147.298 44.336 147.087 44.1596 146.894C43.7501 146.447 43.4999 145.861 43.3288 145.277C42.9532 143.997 43.1072 142.46 44.3444 141.757C44.9208 141.43 46.6475 141.431 47.334 141.593C48.0558 141.763 48.8741 143.421 48.9144 143.577C48.9393 143.673 48.9268 143.793 49.0119 143.857C49.199 143.998 49.5075 143.753 49.6454 143.632C49.8835 143.423 50.0533 143.145 50.2004 142.864C50.5209 142.25 50.7793 141.591 50.9618 140.919C51.1025 140.401 51.1924 139.867 51.3763 139.362C51.5593 138.86 51.8478 138.411 52.2963 138.126C52.7842 137.817 53.3435 137.654 53.8792 137.459C54.4101 137.266 54.9319 137.031 55.3434 136.622C55.4339 136.532 55.5218 136.436 55.5947 136.33C55.6522 136.247 55.709 136.086 55.7966 136.033C55.9328 135.951 56.1316 136.165 56.2494 136.243C56.8304 136.628 57.3152 137.163 57.7062 137.749C58.0951 138.331 58.4141 138.891 58.6734 139.541C58.8657 140.024 58.9857 140.641 59.3239 141.036C59.4749 141.213 60.5973 141.319 60.9609 141.165C61.3244 141.011 61.7319 140.611 61.8539 140.361C61.9788 140.104 62.0087 139.822 61.9553 139.541C61.9239 139.376 61.8598 139.222 61.8247 139.059C61.7952 138.923 61.7684 138.794 61.7046 138.669C61.5838 138.433 61.3775 138.263 61.1286 138.191C61.3876 137.943 61.6022 137.645 61.7507 137.313C61.905 136.968 62.0358 136.547 62.0729 136.168C62.1031 135.86 62.0565 135.541 61.8946 135.277C61.7247 134.999 61.4239 134.818 61.1635 134.645C61.5612 134.321 61.9015 133.927 62.1813 133.491C62.7255 132.643 63.0621 131.573 62.7857 130.562Z" fill="#191847"/>
<path fill-rule="evenodd" clip-rule="evenodd" d="M37.834 204.599L58.993 262.89L73.8239 305.854H82.2804L61.8939 204.599L37.834 204.599Z" fill="#3C4E5E"/>
<path fill-rule="evenodd" clip-rule="evenodd" d="M32.6047 204.599C32.3747 224.6 32.541 251.528 32.0051 252.774C31.6478 253.605 20.5356 263.076 -1.33154 281.185L3.02728 288.901C28.9886 271.471 42.6329 261.594 43.9602 259.272C45.9512 255.789 55.9535 223.733 61.1575 204.599H32.6047Z" fill="#2D4357"/>
<path fill-rule="evenodd" clip-rule="evenodd" d="M-9.00035 286.381L-1.63419 280.544L4.30462 287.913C4.75952 293.47 6.52455 299.702 9.5997 306.608L8.25049 307.787L-2.49593 294.452L-5.49774 289.301L-6.17234 289.89L-9.00035 286.381Z" fill="#191847"/>
<path fill-rule="evenodd" clip-rule="evenodd" d="M73.0391 314.101L73.4791 304.479H82.7205C87.1024 307.686 92.8233 310.282 99.8829 312.268V314.101H83.1605L77.4397 313.184V314.101H73.0391Z" fill="#191847"/>
<path fill-rule="evenodd" clip-rule="evenodd" d="M75.134 198.803L89.1713 209.535C92.9785 210.604 96.1593 211.935 98.7136 213.527C99.317 214.099 100.046 215.259 97.5439 215.058C95.0415 214.858 92.4007 214.764 92.0554 215.653C91.7101 216.542 93.2244 217.604 92.5265 218.803C92.0612 219.603 89.8628 217.598 85.9315 212.79L72.0309 206.789L75.134 198.803ZM21.238 199.173L30.4341 199.211C24.7559 218.295 21.6905 228.421 21.238 229.589C20.2197 232.216 22.3745 236.218 23.296 238.368C20.2947 239.766 20.6145 234.588 16.8285 236.422C13.3728 238.096 10.7441 241.129 6.75155 238.564C6.26069 238.248 5.72279 237.061 7.02243 236.133C10.2603 233.822 14.9263 229.776 15.5567 228.445C16.4165 226.629 18.3102 216.872 21.238 199.173Z" fill="#B28B67"/>
<path fill-rule="evenodd" clip-rule="evenodd" d="M47.3719 158.997L51.1772 158.318C65.2959 171.016 71.095 195.411 88.4011 208.334L84.2356 213.71C54.2128 209.839 46.7714 180.083 47.3719 158.997Z" fill="#27568E"/>
<path fill-rule="evenodd" clip-rule="evenodd" d="M30.7842 208.785C46.042 208.785 57.2653 208.785 64.4541 208.785C65.9926 208.785 65.7027 206.472 65.4803 205.305C62.9135 191.835 52.8936 177.314 52.8936 158.14L43.1816 156.554C35.1485 170.005 32.3705 186.566 30.7842 208.785Z" fill="#DDE3E9"/>
<path fill-rule="evenodd" clip-rule="evenodd" d="M31.0547 169.776C29.6442 169.354 28.5272 168.37 27.7037 166.823C24.1539 160.154 25.4359 156.482 29.2295 155.275C33.023 154.069 36.4061 156.554 42.4502 156.554C42.779 156.554 43.0801 156.576 43.3535 156.619L46.3939 156.799C55.117 187.579 57.5228 208.115 53.6112 218.407H27.1104C25.5403 222.219 24.0378 225.426 22.6029 228.029H15.3819C14.7023 205.151 19.9266 185.734 31.0547 169.776Z" fill="#2561A7"/>
<path fill-rule="evenodd" clip-rule="evenodd" d="M32.8811 202.599C33.7145 209.859 35.0692 215.129 36.945 218.407H27.1104C28.9419 213.961 30.8655 208.691 32.8811 202.599Z" fill="black" fill-opacity="0.1"/>
<path fill-rule="evenodd" clip-rule="evenodd" d="M117.502 145.976C116.153 143.035 115.577 139.732 116.641 136.51C119.708 127.226 131.861 132.858 133.104 138.325C134.346 143.792 130.945 155.826 127.537 155.787C126.178 155.771 123.682 154.179 121.367 151.681L119.836 164.881L109.615 162.02L117.502 145.976Z" fill="#D4A181"/>
<path fill-rule="evenodd" clip-rule="evenodd" d="M121.227 146.3C119.313 148.471 117.074 149.883 115.325 149.394C112.003 148.465 110.826 143.189 112.1 138.226C112.145 138.052 112.193 137.879 112.244 137.709C108.086 139.233 104.109 143.416 99.4596 142.116C93.1337 140.347 94.0265 126.384 102.865 128.855C108.875 130.536 111.598 132.273 113.8 134.332C114.681 133.001 115.765 131.977 116.924 131.374C117.217 131.174 117.627 131.018 118.133 130.909C118.446 130.83 118.76 130.783 119.075 130.769C120.762 130.611 123.094 130.82 125.603 131.425C126.072 131.538 126.529 131.66 126.972 131.791C127.605 129.358 130.012 127.918 132.357 128.574C134.706 129.231 136.102 131.742 135.475 134.183C134.869 136.544 132.593 137.975 130.319 137.472C128.931 137.525 127.206 137.366 125.346 136.982C125.345 137.725 125.239 138.54 125.011 139.43C124.809 140.216 124.511 141.026 124.14 141.83C123.87 141.229 123.422 140.762 122.884 140.611C121.379 140.191 120.002 141.184 119.651 142.55C119.206 144.283 119.847 145.806 121.227 146.3Z" fill="#191847"/>
<path fill-rule="evenodd" clip-rule="evenodd" d="M102.546 202.549L135.245 259.466L159.761 307.584H165.041L123.965 202.549L102.546 202.549Z" fill="#D4A181"/>
<path fill-rule="evenodd" clip-rule="evenodd" d="M156.532 305.363C156.04 306.731 155.793 307.755 155.793 308.435C155.793 309.261 155.926 310.466 156.19 312.051C157.111 312.051 165.384 312.051 181.01 312.051C181.655 309.831 181.283 308.633 179.893 308.456C178.504 308.279 177.349 308.119 176.43 307.976L164.894 302.622C164.672 302.519 164.412 302.623 164.313 302.854C164.311 302.858 164.31 302.862 164.308 302.866L163.566 304.738C162.28 305.363 161.235 305.676 160.43 305.676C159.777 305.676 158.874 305.401 157.723 304.852C157.281 304.641 156.759 304.843 156.556 305.303C156.547 305.323 156.539 305.343 156.532 305.363Z" fill="#784A66"/>
<path fill-rule="evenodd" clip-rule="evenodd" d="M152.952 299.879L163.135 296.672C158.673 282.786 153.205 267.505 146.73 250.828C140.255 234.152 133.301 218.059 125.869 202.549H97.1079C105.371 222.169 114.132 239.995 123.389 256.029C132.647 272.063 142.501 286.68 152.952 299.879Z" fill="#394B70"/>
<path fill-rule="evenodd" clip-rule="evenodd" d="M100.397 202.549C97.3104 222.55 91.3579 248.104 90.7962 248.892C90.4217 249.418 76.9395 254.122 50.3496 263.003L51.4902 267.851C83.1986 263.088 99.9062 259.392 101.613 256.765C104.173 252.823 116.957 221.684 121.908 202.549H100.397Z" fill="#D4A181"/>
<path fill-rule="evenodd" clip-rule="evenodd" d="M59.6968 258.812L61.7059 266.62C85.4219 268.786 99.9532 267.221 105.3 261.926C110.646 256.631 116.74 236.839 123.581 202.549H96.1555C91.8215 230.628 89.3985 245.256 88.8865 246.435C88.3745 247.613 78.6446 251.739 59.6968 258.812Z" fill="#162E5E"/>
<path fill-rule="evenodd" clip-rule="evenodd" d="M51.6604 260.986C50.279 260.72 49.2666 260.646 48.6231 260.764C47.8405 260.908 46.7213 261.254 45.2656 261.801C45.4249 262.745 46.8574 271.226 49.5629 287.244C51.7776 287.518 52.8484 286.927 52.7755 285.472C52.7026 284.016 52.6541 282.805 52.6301 281.838L55.7049 269.079C55.7641 268.834 55.6207 268.585 55.3846 268.524C55.3806 268.523 55.3765 268.522 55.3725 268.521L53.47 268.087C52.6553 266.878 52.1783 265.861 52.0391 265.036C51.9259 264.366 52.03 263.393 52.3512 262.117C52.4745 261.627 52.1927 261.127 51.7218 261C51.7015 260.994 51.6811 260.99 51.6604 260.986Z" fill="#784A66"/>
<path fill-rule="evenodd" clip-rule="evenodd" d="M141.414 198.939L153.459 212.034C157.032 213.776 159.945 215.661 162.196 217.689C162.696 218.361 163.222 219.633 160.79 218.982C158.358 218.331 155.772 217.761 155.284 218.572C154.796 219.383 156.112 220.702 155.225 221.754C154.634 222.456 152.801 220.087 149.727 214.648L137.03 206.228L141.414 198.939ZM79.579 183.03L86.9709 185.871C75.0232 202.51 68.6451 211.296 67.8367 212.23C66.018 214.332 66.7317 218.852 66.893 221.197C63.613 221.44 65.6115 216.697 61.4509 217.068C57.6534 217.407 54.1876 219.315 51.2752 215.487C50.9171 215.016 50.8007 213.711 52.3268 213.304C56.1286 212.29 61.8416 210.157 62.8709 209.133C64.2746 207.736 69.8439 199.035 79.579 183.03Z" fill="#D4A181"/>
<path fill-rule="evenodd" clip-rule="evenodd" d="M144.457 200.644C146.259 200.839 148.144 201.502 150.097 202.611C151.058 203.157 151.413 204.409 150.889 205.408C150.585 205.988 150.052 206.355 149.47 206.454C149.816 206.828 150.166 207.202 150.52 207.574L145.779 214.34C132.378 204.021 119.543 195.739 115.375 182.01C113.976 177.403 117.11 163.204 117.789 157.953L122.761 156.829C126.881 171.917 133.381 186.861 144.457 200.644Z" fill="#B4BEC4"/>
<path fill-rule="evenodd" clip-rule="evenodd" d="M93.323 203.438C106.697 207.507 117.431 209.483 125.525 209.368C126.528 209.353 127.219 204.997 126.97 203.727C123.086 183.943 120.763 169.557 122.932 156.712C121.529 157.173 119.261 156.864 116.129 155.783C105.256 167.429 98.7209 181.886 93.323 203.438Z" fill="#191847"/>
<path fill-rule="evenodd" clip-rule="evenodd" d="M90.421 205.182C90.0343 204.643 89.9075 203.92 90.1444 203.242L90.5954 201.951C90.901 201.076 91.7174 200.548 92.5677 200.599C92.8275 199.949 93.0665 199.3 93.2829 198.652C95.1103 193.177 94.5472 187.375 95.5338 181.962C87.5131 186.865 79.4511 196.397 71.3478 210.558L63.5776 206.543C64.0941 205.393 64.6193 204.26 65.1533 203.144C64.3019 202.411 63.6291 199.648 64.4967 199.366C65.3928 199.075 66.3155 198.924 67.2628 198.909C78.7477 176.767 93.9382 161.825 112.834 154.081L114.343 154.359L117.768 154.99C112.943 174.694 125.644 221.99 112.39 257.945C99.0082 258.563 82.1955 245.877 63.0461 250.013C66.2441 235.14 82.5567 219.979 90.421 205.182Z" fill="#C5CFD6"/>
<path fill-rule="evenodd" clip-rule="evenodd" d="M114.555 154.835L111.107 161.579L114.71 167.774L109.923 171.24L116.818 190.6L107.719 170.871L112.44 167.357L109.238 161.879L114.555 154.835Z" fill="black" fill-opacity="0.1"/>
<path fill-rule="evenodd" clip-rule="evenodd" d="M112.761 196.839C111.802 196.662 111.161 195.711 111.329 194.715C111.497 193.718 112.411 193.053 113.37 193.23C114.329 193.406 114.97 194.357 114.802 195.354C114.634 196.35 113.72 197.015 112.761 196.839ZM113.178 207.614C112.219 207.437 111.578 206.486 111.747 205.49C111.915 204.493 112.829 203.828 113.788 204.005C114.747 204.181 115.388 205.132 115.22 206.129C115.052 207.126 114.138 207.79 113.178 207.614ZM111.86 218.07C110.901 217.893 110.26 216.942 110.428 215.946C110.596 214.949 111.51 214.284 112.469 214.461C113.428 214.637 114.069 215.588 113.901 216.585C113.733 217.581 112.819 218.246 111.86 218.07Z" fill="#B088A1"/>
<path fill-rule="evenodd" clip-rule="evenodd" d="M174.68 146.883C172.653 144.405 171.28 141.368 171.509 137.965C172.17 128.16 185.28 130.317 187.83 135.265C190.38 140.214 190.077 152.767 186.781 153.651C185.467 154.004 182.667 153.14 179.817 151.352L181.606 164.527H171.044L174.68 146.883Z" fill="#B28B67"/>
<path d="M186.431 133.574C186.667 133.656 186.431 132.603 185.869 132.217C184.143 131.035 179.007 129.286 175.495 130.045C173.142 130.554 170.208 131.83 168.329 133.457C166.635 134.924 165.093 137.51 164.493 139.782C163.864 142.167 163.625 145.486 164.493 147.568C165.527 150.046 169.187 152.718 169.284 153.072C169.395 153.477 168.962 155.059 168.645 156.725C168.329 158.392 168.473 162.635 168.645 163.327C168.921 164.433 170.4 164.977 171.044 165.057C174.609 165.499 177.193 170.106 178.268 171.285C183.055 176.289 186.396 178.465 188.291 177.813C188.789 177.642 188.042 171.425 187.543 168.76C187.045 166.095 182.154 161.34 181.841 159.772C181.656 158.849 181.625 157.242 181.606 157.169C181.145 153.858 181.224 153.589 180.551 152.24C179.878 150.891 179.357 150.812 179.518 150.419C180.309 148.498 182.85 142.623 183.426 140.702C184.113 138.412 183.789 139.164 184.497 136.882C184.811 135.872 185.21 133.147 186.431 133.574Z" fill="#784A66"/>
<mask id="mask0_1765_4323" style="mask-type:luminance" maskUnits="userSpaceOnUse" x="163" y="129" width="26" height="49">
<path d="M186.431 133.574C186.667 133.656 186.431 132.603 185.869 132.217C184.143 131.035 179.007 129.286 175.495 130.045C173.142 130.554 170.208 131.83 168.329 133.457C166.635 134.924 165.093 137.51 164.493 139.782C163.864 142.167 163.625 145.486 164.493 147.568C165.527 150.046 169.187 152.718 169.284 153.072C169.395 153.477 168.962 155.059 168.645 156.725C168.329 158.392 168.473 162.635 168.645 163.327C168.921 164.433 170.4 164.977 171.044 165.057C174.609 165.499 177.193 170.106 178.268 171.285C183.055 176.289 186.396 178.465 188.291 177.813C188.789 177.642 188.042 171.425 187.543 168.76C187.045 166.095 182.154 161.34 181.841 159.772C181.656 158.849 181.625 157.242 181.606 157.169C181.145 153.858 181.224 153.589 180.551 152.24C179.878 150.891 179.357 150.812 179.518 150.419C180.309 148.498 182.85 142.623 183.426 140.702C184.113 138.412 183.789 139.164 184.497 136.882C184.811 135.872 185.21 133.147 186.431 133.574Z" fill="white"/>
</mask>
<g mask="url(#mask0_1765_4323)">
<path fill-rule="evenodd" clip-rule="evenodd" d="M177.345 133.83C176.573 136.38 176.407 137.741 176.573 141.225H176.194C175.487 137.937 176.117 134.842 176.869 133.83H177.345ZM166.989 140.411C168.427 144.045 169.083 146.191 173.1 149.132L172.79 149.358C168.802 147.005 167.641 144.198 166.686 140.562L166.989 140.411ZM172.899 136.713C173.553 141.871 173.743 144.817 177.147 150.46L176.785 150.575C173.282 145.662 172.727 141.652 172.561 136.741L172.899 136.713ZM169.139 152.035L169.449 151.643C173.677 153.022 173.206 155.869 178.531 158.751L178.086 159.032C173.423 157.028 172.333 152.731 169.139 152.035Z" fill="black" fill-opacity="0.2"/>
</g>
<path fill-rule="evenodd" clip-rule="evenodd" d="M162.56 202.441C163.353 213.716 214.471 246.912 214.769 247.843C214.902 248.257 209.598 261.343 198.858 287.1L203.327 288.908C219.8 261.629 227.613 246.537 226.767 243.63C225.556 239.468 212.335 225.779 187.106 202.561L162.56 202.441Z" fill="#B28B67"/>
<path fill-rule="evenodd" clip-rule="evenodd" d="M200.034 281.283L207.329 284.048C222.713 265.977 228.743 251.066 227.643 243.469C226.91 238.405 213.736 224.738 188.119 202.469L162.037 202.469C162.926 228.58 210.306 247.943 210.94 249.056C211.574 250.168 205.337 261.067 200.034 281.283Z" fill="#335B7F"/>
<path fill-rule="evenodd" clip-rule="evenodd" d="M197.207 286.208C196.296 287.316 195.73 288.188 195.507 288.826C195.237 289.6 194.966 290.779 194.696 292.36C195.561 292.688 203.339 295.639 218.029 301.214C219.362 299.361 219.405 298.104 218.156 297.443C216.908 296.781 215.875 296.219 215.058 295.757L205.966 286.62C205.791 286.444 205.512 286.448 205.344 286.63C205.341 286.633 205.338 286.636 205.335 286.639L204.025 288.131C202.611 288.259 201.526 288.179 200.77 287.892C200.155 287.659 199.397 287.079 198.494 286.153C198.148 285.798 197.591 285.801 197.25 286.16C197.235 286.175 197.221 286.191 197.207 286.208Z" fill="#A0A0A0"/>
<path fill-rule="evenodd" clip-rule="evenodd" d="M168.438 202.441L145.666 259.358L123.285 307.476H128.566L186.337 202.441H168.438Z" fill="#997659"/>
<path fill-rule="evenodd" clip-rule="evenodd" d="M122.969 305.255C122.477 306.623 122.23 307.647 122.23 308.326C122.23 309.152 122.363 310.358 122.627 311.943C123.548 311.943 131.821 311.943 147.447 311.943C148.092 309.723 147.72 308.524 146.33 308.347C144.941 308.17 143.786 308.011 142.867 307.868L131.331 302.513C131.109 302.41 130.849 302.514 130.75 302.745C130.748 302.749 130.747 302.753 130.745 302.757L130.003 304.63C128.717 305.255 127.672 305.567 126.867 305.567C126.214 305.567 125.311 305.293 124.16 304.743C123.718 304.532 123.196 304.734 122.993 305.194C122.984 305.214 122.976 305.234 122.969 305.255Z" fill="#A0A0A0"/>
<path fill-rule="evenodd" clip-rule="evenodd" d="M125.306 297.48L137.039 299.771C146.111 285.885 184.077 228.947 188.24 202.441H162.119C148.218 221.602 133.953 283.364 125.306 297.48Z" fill="#224666"/>
<path fill-rule="evenodd" clip-rule="evenodd" d="M205.154 155.469L221.834 150.256C224.946 147.734 227.881 145.89 230.639 144.724C231.442 144.567 232.77 144.659 231.11 146.619C229.45 148.579 227.789 150.718 228.263 151.54C228.737 152.362 230.464 151.743 230.963 153.044C231.296 153.912 228.436 154.534 222.382 154.909L209.413 162.856L205.154 155.469ZM203.68 186.088L217.717 196.82C221.525 197.889 224.705 199.22 227.26 200.812C227.863 201.384 228.593 202.543 226.09 202.343C223.588 202.143 220.947 202.049 220.602 202.938C220.256 203.826 221.771 204.889 221.073 206.088C220.607 206.888 218.409 204.883 214.478 200.075L200.577 194.074L203.68 186.088Z" fill="#B28B67"/>
<path fill-rule="evenodd" clip-rule="evenodd" d="M181.877 157.186C189.521 172.026 200.575 183.401 216.6 195.227L210.533 202.35C192.64 195.427 183.196 191.25 178.559 177.23C177.395 173.711 176.582 162.493 175.884 156.591L181.877 157.186Z" fill="#346EA2"/>
<path fill-rule="evenodd" clip-rule="evenodd" d="M160.507 206.628H194.392C186.717 182.256 182.796 165.529 182.629 156.446C182.621 155.983 181.8 155.167 181.436 155.274C178.779 156.055 175.935 155.763 172.905 154.397C164.872 167.848 162.094 184.409 160.507 206.628Z" fill="#B7B7B7"/>
<path fill-rule="evenodd" clip-rule="evenodd" d="M175.796 154.419C185.509 154.501 201.268 156.348 219.442 150.273L221.236 159.608C207.5 168.805 193.592 175.93 181.404 174.919C186.697 198.554 186.453 217.902 174.769 217.902C169.189 217.902 163.166 217.902 156.701 217.902C153.832 197.824 161.373 169.985 168.365 155.944C168.632 155.408 169.2 154.397 170.539 154.397C171.706 154.397 173.456 154.397 175.789 154.397C175.792 154.404 175.794 154.411 175.796 154.419Z" fill="#3485D1"/>
<path fill-rule="evenodd" clip-rule="evenodd" d="M241.756 146.382C239.086 144.49 236.933 141.859 236.296 138.413C234.461 128.485 248.188 126.94 252.013 131.14C255.837 135.339 258.732 147.897 255.645 149.703C254.413 150.423 251.379 150.353 248.059 149.377L253.214 161.965L242.598 164.936L241.756 146.382Z" fill="#B28B67"/>
<path fill-rule="evenodd" clip-rule="evenodd" d="M245.446 136.999C247.348 142.711 249.17 145.324 250.912 144.837C253.525 144.106 255.303 141.777 256.45 141.457C257.286 141.223 257.376 142.353 257.027 143.306C256.739 144.093 254.676 145.351 254.939 146.373C255.201 147.395 256.757 146.112 256.912 146.718C257.17 147.721 257.963 149.519 256.274 149.991C254.565 150.469 249.499 151.198 247.988 148.819C247.013 147.285 245.766 143.888 244.245 138.629C244.138 138.645 244.031 138.668 243.924 138.698C242.459 139.108 241.586 140.663 241.974 142.171C242.17 142.937 242.654 143.544 243.274 143.902C242.89 144.966 242.441 146.09 241.9 147.272C238.471 146.27 234.899 141.529 236.472 135.575C236.625 132.831 238.09 130.978 240.068 129.755C241.609 128.524 243.386 127.937 245.019 127.96C248.062 127.391 250.96 127.583 251.855 127.927C252.6 130.83 252.276 131.843 247.593 133.071C246.608 134.015 246.002 135.335 245.446 136.999Z" fill="#191847"/>
<path fill-rule="evenodd" clip-rule="evenodd" d="M247.792 203.351L270.226 262.24L285.273 312.026H291.215L268.211 203.351L247.792 203.351Z" fill="#997659"/>
<path fill-rule="evenodd" clip-rule="evenodd" d="M243.274 203.351C243.036 224.045 239.552 251.906 238.995 253.196C238.624 254.056 225.814 264.992 200.564 286.004L204.657 290.546C234.449 272.531 250.034 262.322 251.412 259.919C253.48 256.315 260.213 223.148 265.618 203.351H243.274Z" fill="#B28B67"/>
<path fill-rule="evenodd" clip-rule="evenodd" d="M199.993 284.48C198.618 284.987 197.671 285.467 197.152 285.921C196.52 286.473 195.686 287.387 194.651 288.665C195.265 289.428 200.788 296.28 211.218 309.223C213.346 308.274 214.014 307.165 213.222 305.896C212.43 304.626 211.781 303.563 211.277 302.707L207.671 289.575C207.602 289.322 207.348 289.176 207.106 289.248C207.102 289.25 207.097 289.251 207.093 289.252L205.166 289.889C203.83 289.241 202.893 288.584 202.356 287.918C201.92 287.377 201.528 286.446 201.179 285.125C201.046 284.618 200.543 284.32 200.056 284.46C200.035 284.466 200.014 284.473 199.993 284.48Z" fill="#CFCFCF"/>
<path fill-rule="evenodd" clip-rule="evenodd" d="M282.841 309.774C282.329 311.196 282.073 312.259 282.073 312.965C282.073 313.823 282.211 315.075 282.485 316.721C283.442 316.721 292.035 316.721 308.266 316.721C308.936 314.415 308.549 313.171 307.105 312.987C305.662 312.803 304.463 312.637 303.508 312.489L291.526 306.927C291.295 306.82 291.025 306.928 290.922 307.168C290.921 307.172 290.919 307.176 290.917 307.18L290.147 309.126C288.811 309.775 287.725 310.099 286.89 310.099C286.211 310.099 285.274 309.814 284.078 309.243C283.619 309.024 283.076 309.234 282.866 309.712C282.857 309.732 282.848 309.753 282.841 309.774Z" fill="#CFCFCF"/>
<path fill-rule="evenodd" clip-rule="evenodd" d="M262.876 306.898L291.126 303.718L270.189 203.351H244.887L262.876 306.898Z" fill="#966A84"/>
<path fill-rule="evenodd" clip-rule="evenodd" d="M206.409 278.677L224.939 301.424C244.456 279.317 255.835 264.891 259.075 258.149C262.315 251.406 265.227 233.14 267.812 203.351H239.327C237.915 229.558 236.963 243.271 236.471 244.491C235.98 245.71 225.959 257.106 206.409 278.677Z" fill="#A17690"/>
<path fill-rule="evenodd" clip-rule="evenodd" d="M282.803 192.446L299.009 200.711C303.088 201.081 306.571 201.835 309.458 202.972C310.173 203.44 311.119 204.481 308.524 204.749C305.929 205.017 303.211 205.419 303.01 206.387C302.809 207.356 304.541 208.151 304.033 209.501C303.694 210.401 301.1 208.778 296.253 204.631L280.999 201.149L282.803 192.446ZM227.72 202.975L237.136 201.281C234.603 221.75 233.205 232.621 232.942 233.893C232.351 236.756 235.243 240.417 236.555 242.43C233.724 244.416 233.163 239.092 229.604 241.67C226.355 244.022 224.186 247.6 219.66 245.745C219.104 245.517 218.35 244.411 219.52 243.223C222.437 240.264 226.516 235.272 226.933 233.8C227.501 231.792 227.763 221.517 227.72 202.975Z" fill="#B28B67"/>
<path fill-rule="evenodd" clip-rule="evenodd" d="M247.522 157.163L251.301 155.754C267.936 166.009 278.063 189.729 298 199.611L294.659 205.864C263.259 207.586 250.53 178.723 247.522 157.163Z" fill="#27568E"/>
<path fill-rule="evenodd" clip-rule="evenodd" d="M239.106 210.921C254.727 208.045 266.217 205.929 273.577 204.573C275.152 204.283 274.458 201.985 274.03 200.839C269.088 187.619 256.335 174.736 253.042 155.228L242.826 155.446C236.913 170.645 236.913 188.017 239.106 210.921Z" fill="#DDE3E9"/>
<path fill-rule="evenodd" clip-rule="evenodd" d="M232.698 171.177C231.181 171.013 229.869 170.222 228.76 168.803C223.979 162.688 224.661 158.71 228.338 156.767C232.015 154.824 235.906 156.716 242.095 155.576C242.432 155.514 242.744 155.479 243.031 155.471L246.175 155.082C260.395 184.754 266.387 205.194 264.15 216.403L237.014 221.399C236.062 225.574 235.074 229.12 234.052 232.038L226.658 233.4C222.032 210.251 224.045 189.51 232.698 171.177Z" fill="#2561A7"/>
<path fill-rule="evenodd" clip-rule="evenodd" d="M240.222 204.233C242.322 211.463 244.615 216.568 247.098 219.55L237.029 221.404C238.14 216.535 239.205 210.811 240.222 204.233Z" fill="black" fill-opacity="0.1"/>
<path fill-rule="evenodd" clip-rule="evenodd" d="M334.775 138.197C336.366 144.105 338.438 157.386 336.323 159.469H322.944C322.943 159.445 322.941 159.421 322.94 159.398C317.981 158.844 314.124 154.605 314.124 149.458V139.69C314.124 134.166 318.565 129.689 324.043 129.689H324.966C329.941 129.689 334.061 133.382 334.775 138.197Z" fill="#3D3D3D"/>
<path fill-rule="evenodd" clip-rule="evenodd" d="M319.32 147.593C317.194 145.077 315.755 141.993 315.996 138.538C316.688 128.584 330.432 130.774 333.106 135.798C335.779 140.822 335.461 153.566 332.006 154.464C330.628 154.823 327.693 153.945 324.705 152.13L326.581 165.506H315.508L319.32 147.593Z" fill="#D4A181"/>
<path fill-rule="evenodd" clip-rule="evenodd" d="M322.313 145.911C322.823 151.436 322.619 157.746 321.099 159.244H307.719C306.974 146.185 314.178 151.242 314.178 138.947C314.628 138.505 315.052 138.067 315.472 137.689L315.457 137.327C317.774 132.545 320.713 130.154 324.275 130.154C329.617 130.154 331.304 132.661 332.739 134.789C331.666 138.503 327.499 139.054 323.797 141.369C323.361 141.011 322.804 140.797 322.198 140.797C320.797 140.797 319.661 141.943 319.661 143.356C319.661 144.768 320.797 145.914 322.198 145.914C322.237 145.914 322.275 145.913 322.313 145.911Z" fill="#3D3D3D"/>
<path fill-rule="evenodd" clip-rule="evenodd" d="M297.704 249.74C308.771 252.861 318.32 254.422 326.35 254.422C334.38 254.422 341.839 252.019 348.726 247.212C337.895 244.009 328.976 242.407 321.968 242.407C314.959 242.407 306.871 244.851 297.704 249.74Z" fill="#6F7880"/>
<path fill-rule="evenodd" clip-rule="evenodd" d="M335.931 258.92C335.825 258.758 335.735 258.583 335.663 258.392C334.184 254.447 310.488 211.894 308.127 204.114H334.805C336.6 210.029 344.679 247.15 345.816 254.556C349.403 266.238 356.788 304.073 357.731 306.694C358.723 309.452 353.142 312.324 351.655 308.934C349.289 303.54 343.651 288.616 341.14 279.503C338.787 270.96 336.87 263.274 335.931 258.92Z" fill="#D4A181"/>
<path fill-rule="evenodd" clip-rule="evenodd" d="M314.105 264.116C303.271 266.876 263.645 271.867 260.926 272.65C258.128 273.455 255.675 267.642 259.133 266.382C264.635 264.379 279.795 259.749 288.986 257.86C296.379 256.34 303.125 255.1 307.655 254.374C307.271 241.546 305.517 210.762 306.667 204.114H330.272C329.169 210.489 319.85 257.01 318.118 261.667C317.568 263.329 315.928 264.064 314.105 264.116Z" fill="#D4A181"/>
<path fill-rule="evenodd" clip-rule="evenodd" d="M259.394 264.836C257.945 264.566 256.884 264.491 256.209 264.611C255.389 264.758 254.216 265.109 252.689 265.664C252.856 266.622 254.358 275.232 257.195 291.494C259.516 291.773 260.639 291.173 260.563 289.696C260.486 288.218 260.435 286.988 260.41 286.007L263.634 273.053C263.696 272.804 263.546 272.551 263.298 272.489C263.294 272.488 263.29 272.487 263.285 272.486L261.291 272.046C260.437 270.818 259.937 269.785 259.791 268.948C259.672 268.268 259.781 267.28 260.118 265.985C260.247 265.488 259.952 264.98 259.458 264.85C259.437 264.845 259.415 264.84 259.394 264.836Z" fill="#444242"/>
<path fill-rule="evenodd" clip-rule="evenodd" d="M349.962 308.495C349.446 309.885 349.188 310.924 349.188 311.614C349.188 312.452 349.326 313.676 349.603 315.286C350.568 315.286 359.242 315.286 375.625 315.286C376.301 313.032 375.91 311.815 374.454 311.635C372.997 311.456 371.786 311.293 370.823 311.148L358.728 305.712C358.496 305.608 358.223 305.713 358.119 305.948C358.117 305.952 358.116 305.956 358.114 305.96L357.337 307.861C355.988 308.496 354.892 308.813 354.049 308.813C353.364 308.813 352.417 308.534 351.21 307.976C350.747 307.762 350.199 307.967 349.987 308.434C349.978 308.454 349.969 308.475 349.962 308.495Z" fill="#444242"/>
<path fill-rule="evenodd" clip-rule="evenodd" d="M306.743 204.114C317.145 201.113 326.987 201.113 336.269 204.114C339.499 218.97 347.346 224.866 348.726 247.642C333.04 255.501 313.663 242.038 297.515 249.701C292.902 238.982 299.361 213.168 306.743 204.114Z" fill="#224666"/>
<path fill-rule="evenodd" clip-rule="evenodd" d="M351.494 185.652L369.709 183.147C373.353 181.103 376.705 179.72 379.766 178.996C380.627 178.971 381.997 179.287 379.956 181.002C377.915 182.718 375.844 184.616 376.208 185.531C376.571 186.447 378.47 186.106 378.784 187.514C378.994 188.453 375.913 188.606 369.542 187.972L354.762 193.88L351.494 185.652ZM294.272 189.903L304.374 189.941C293.297 215.075 287.52 228.235 287.046 229.42C285.978 232.088 288.238 236.15 289.204 238.333C286.057 239.753 286.392 234.496 282.423 236.358C278.8 238.057 276.044 241.136 271.859 238.532C271.344 238.212 270.78 237.007 272.143 236.065C275.537 233.718 280.429 229.611 281.09 228.259C281.991 226.415 286.385 213.63 294.272 189.903Z" fill="#D4A181"/>
<path fill-rule="evenodd" clip-rule="evenodd" d="M321.944 157.598L329.854 158.13C331.802 175.899 342.413 187.123 366.17 183.323L369.326 206.206C347.122 209.1 327.648 200.137 323.657 175.869C322.624 169.587 321.808 163.049 321.944 157.598Z" fill="#AFB9C5"/>
<path fill-rule="evenodd" clip-rule="evenodd" d="M318.041 155.28L330.026 158.047C330.026 178.83 336.592 192.09 339.96 207.37H307.593C307.137 212.65 306.857 218.076 306.711 223.65H282.476C287.968 194.189 299.559 171.397 317.25 155.272H318.035L318.041 155.28Z" fill="#C5CFD6"/>
<path fill-rule="evenodd" clip-rule="evenodd" d="M312.7 177.721C311.866 190.671 312.356 200.554 314.171 207.37H307.593C308.496 196.91 310.09 187.027 312.7 177.721Z" fill="black" fill-opacity="0.1"/>
</svg>
